<svg width="32" height="32" viewBox="0 0 32 32" fill="none" xmlns="http://www.w3.org/2000/svg">
<path d="M6.11826 23.9507C7.44317 22.9376 8.92395 22.1387 10.5606 21.5542C12.1973 20.9697 13.9118 20.6774 15.7044 20.6774C17.4969 20.6774 19.2115 20.9697 20.8482 21.5542C22.4848 22.1387 23.9656 22.9376 25.2905 23.9507C26.1998 22.8856 26.9077 21.6776 27.4143 20.3267C27.9208 18.9758 28.1741 17.534 28.1741 16.0013C28.1741 12.5461 26.9596 9.60401 24.5306 7.17501C22.1016 4.746 19.1595 3.5315 15.7044 3.5315C12.2492 3.5315 9.30713 4.746 6.87813 7.17501C4.44913 9.60401 3.23463 12.5461 3.23463 16.0013C3.23463 17.534 3.48792 18.9758 3.9945 20.3267C4.50108 21.6776 5.209 22.8856 6.11826 23.9507ZM15.7044 17.56C14.1716 17.56 12.8792 17.0339 11.8271 15.9818C10.7749 14.9296 10.2489 13.6372 10.2489 12.1045C10.2489 10.5717 10.7749 9.27928 11.8271 8.22714C12.8792 7.17501 14.1716 6.64894 15.7044 6.64894C17.2371 6.64894 18.5296 7.17501 19.5817 8.22714C20.6338 9.27928 21.1599 10.5717 21.1599 12.1045C21.1599 13.6372 20.6338 14.9296 19.5817 15.9818C18.5296 17.0339 17.2371 17.56 15.7044 17.56ZM15.7044 31.5884C13.5481 31.5884 11.5218 31.1793 9.62537 30.3609C7.72893 29.5426 6.07929 28.432 4.67644 27.0292C3.27359 25.6263 2.16301 23.9767 1.34468 22.0803C0.526351 20.1838 0.117188 18.1575 0.117188 16.0013C0.117188 13.845 0.526351 11.8187 1.34468 9.92225C2.16301 8.02581 3.27359 6.37616 4.67644 4.97332C6.07929 3.57047 7.72893 2.45988 9.62537 1.64155C11.5218 0.823226 13.5481 0.414062 15.7044 0.414062C17.8606 0.414062 19.8869 0.823226 21.7834 1.64155C23.6798 2.45988 25.3295 3.57047 26.7323 4.97332C28.1352 6.37616 29.2457 8.02581 30.0641 9.92225C30.8824 11.8187 31.2916 13.845 31.2916 16.0013C31.2916 18.1575 30.8824 20.1838 30.0641 22.0803C29.2457 23.9767 28.1352 25.6263 26.7323 27.0292C25.3295 28.432 23.6798 29.5426 21.7834 30.3609C19.8869 31.1793 17.8606 31.5884 15.7044 31.5884ZM15.7044 28.471C17.0812 28.471 18.3802 28.2697 19.6012 27.867C20.8222 27.4643 21.9393 26.8863 22.9524 26.1329C21.9393 25.3795 20.8222 24.8015 19.6012 24.3988C18.3802 23.9962 17.0812 23.7948 15.7044 23.7948C14.3275 23.7948 13.0286 23.9962 11.8076 24.3988C10.5866 24.8015 9.4695 25.3795 8.45633 26.1329C9.4695 26.8863 10.5866 27.4643 11.8076 27.867C13.0286 28.2697 14.3275 28.471 15.7044 28.471ZM15.7044 14.4425C16.3798 14.4425 16.9384 14.2217 17.38 13.7801C17.8216 13.3384 18.0425 12.7799 18.0425 12.1045C18.0425 11.429 17.8216 10.8705 17.38 10.4288C16.9384 9.9872 16.3798 9.76638 15.7044 9.76638C15.0289 9.76638 14.4704 9.9872 14.0288 10.4288C13.5871 10.8705 13.3663 11.429 13.3663 12.1045C13.3663 12.7799 13.5871 13.3384 14.0288 13.7801C14.4704 14.2217 15.0289 14.4425 15.7044 14.4425Z" fill="#6750A4"/>
</svg>