<svg width="107" height="107" viewBox="0 0 107 107" fill="none" xmlns="http://www.w3.org/2000/svg">
<mask id="mask0_370_36837" style="mask-type:alpha" maskUnits="userSpaceOnUse" x="0" y="0" width="107" height="107">
<rect width="107" height="107" fill="#D9D9D9"/>
</mask>
<g mask="url(#mask0_370_36837)">
<path d="M49.0352 75.7969H57.9518V57.9635H75.7851V49.0469H57.9518V31.2135H49.0352V49.0469H31.2018V57.9635H49.0352V75.7969ZM53.4935 98.0885C47.3261 98.0885 41.5303 96.9175 36.106 94.5754C30.6817 92.2362 25.9633 89.0604 21.9508 85.0479C17.9383 81.0354 14.7625 76.317 12.4233 70.8927C10.0812 65.4684 8.91016 59.6726 8.91016 53.5052C8.91016 47.3378 10.0812 41.542 12.4233 36.1177C14.7625 30.6934 17.9383 25.975 21.9508 21.9625C25.9633 17.95 30.6817 14.7727 36.106 12.4306C41.5303 10.0914 47.3261 8.92188 53.4935 8.92188C59.6608 8.92188 65.4567 10.0914 70.881 12.4306C76.3053 14.7727 81.0237 17.95 85.0362 21.9625C89.0487 25.975 92.2245 30.6934 94.5637 36.1177C96.9058 41.542 98.0768 47.3378 98.0768 53.5052C98.0768 59.6726 96.9058 65.4684 94.5637 70.8927C92.2245 76.317 89.0487 81.0354 85.0362 85.0479C81.0237 89.0604 76.3053 92.2362 70.881 94.5754C65.4567 96.9175 59.6608 98.0885 53.4935 98.0885ZM53.4935 89.1719C63.4504 89.1719 71.8841 85.7167 78.7945 78.8062C85.7049 71.8958 89.1601 63.4622 89.1601 53.5052C89.1601 43.5483 85.7049 35.1146 78.7945 28.2042C71.8841 21.2937 63.4504 17.8385 53.4935 17.8385C43.5365 17.8385 35.1029 21.2937 28.1924 28.2042C21.282 35.1146 17.8268 43.5483 17.8268 53.5052C17.8268 63.4622 21.282 71.8958 28.1924 78.8062C35.1029 85.7167 43.5365 89.1719 53.4935 89.1719Z" fill="#BAABD9"/>
</g>
</svg>