<svg width="289" height="53" viewBox="0 0 289 53" fill="none" xmlns="http://www.w3.org/2000/svg">
<mask id="mask0_370_36812" style="mask-type:alpha" maskUnits="userSpaceOnUse" x="0" y="2" width="48" height="48">
<rect y="2.74219" width="47.0198" height="47.0198" fill="#D9D9D9"/>
</mask>
<g mask="url(#mask0_370_36812)">
<path d="M21.5465 36.0514H25.4648V28.2148H33.3014V24.2965H25.4648V16.4599H21.5465V24.2965H13.7099V28.2148H21.5465V36.0514ZM23.5057 45.8472C20.7955 45.8472 18.2486 45.3326 15.8649 44.3034C13.4813 43.2755 11.4078 41.8799 9.6446 40.1167C7.88136 38.3535 6.48579 36.28 5.45788 33.8964C4.42867 31.5127 3.91406 28.9658 3.91406 26.2557C3.91406 23.5455 4.42867 20.9986 5.45788 18.6149C6.48579 16.2313 7.88136 14.1578 9.6446 12.3946C11.4078 10.6314 13.4813 9.23513 15.8649 8.20592C18.2486 7.17802 20.7955 6.66406 23.5057 6.66406C26.2158 6.66406 28.7627 7.17802 31.1464 8.20592C33.53 9.23513 35.6035 10.6314 37.3667 12.3946C39.1299 14.1578 40.5255 16.2313 41.5534 18.6149C42.5826 20.9986 43.0972 23.5455 43.0972 26.2557C43.0972 28.9658 42.5826 31.5127 41.5534 33.8964C40.5255 36.28 39.1299 38.3535 37.3667 40.1167C35.6035 41.8799 33.53 43.2755 31.1464 44.3034C28.7627 45.3326 26.2158 45.8472 23.5057 45.8472ZM23.5057 41.9289C27.8811 41.9289 31.5872 40.4106 34.6239 37.3739C37.6606 34.3372 39.1789 30.6311 39.1789 26.2557C39.1789 21.8802 37.6606 18.1741 34.6239 15.1374C31.5872 12.1007 27.8811 10.5824 23.5057 10.5824C19.1302 10.5824 15.4241 12.1007 12.3874 15.1374C9.35073 18.1741 7.83238 21.8802 7.83238 26.2557C7.83238 30.6311 9.35073 34.3372 12.3874 37.3739C15.4241 40.4106 19.1302 41.9289 23.5057 41.9289Z" fill="#BAABD9"/>
</g>
<path d="M81.7068 33.7578H84.716L79.0031 17.3009H75.0065L69.2465 33.7578H72.1853L73.3843 30.2313H80.5078L81.7068 33.7578ZM74.2541 27.6217L76.8167 20.0986H77.0518L79.6144 27.6217H74.2541ZM91.0494 34.0634C93.1888 34.0634 94.1997 32.935 94.7169 32.3002H94.9285V33.7578H97.6557V16.1254H94.8815V23.0138H94.6699C94.1292 22.3085 93.0712 21.133 90.8848 21.133C87.5699 21.133 85.1954 23.9307 85.1954 27.5982C85.1954 31.3363 87.7345 34.0634 91.0494 34.0634ZM91.4961 31.4774C89.5683 31.4774 87.9931 29.9492 87.9931 27.6217C87.9931 25.3413 89.4977 23.7426 91.4726 23.7426C93.3769 23.7426 94.952 25.1767 94.952 27.6217C94.952 29.7141 93.5885 31.4774 91.4961 31.4774ZM105.973 34.0634C108.112 34.0634 109.123 32.935 109.64 32.3002H109.852V33.7578H112.579V16.1254H109.805V23.0138H109.593C109.052 22.3085 107.995 21.133 105.808 21.133C102.493 21.133 100.119 23.9307 100.119 27.5982C100.119 31.3363 102.658 34.0634 105.973 34.0634ZM106.419 31.4774C104.492 31.4774 102.916 29.9492 102.916 27.6217C102.916 25.3413 104.421 23.7426 106.396 23.7426C108.3 23.7426 109.875 25.1767 109.875 27.6217C109.875 29.7141 108.512 31.4774 106.419 31.4774ZM123.806 33.7578H127.732L129.965 24.0952H130.106L132.34 33.7578H136.242L139.51 21.4386H136.572L134.338 31.1247H134.127L131.893 21.4386H128.202L125.945 31.1247H125.733L123.524 21.4386H120.561L123.806 33.7578ZM146.574 34.0634C149.136 34.0634 151.393 32.7939 152.193 30.2313L149.654 29.6201C149.207 30.9836 147.914 31.6889 146.55 31.6889C144.529 31.6889 143.188 30.3724 143.165 28.3035H152.498V27.5277C152.498 23.8601 150.218 21.133 146.456 21.133C143.141 21.133 140.297 23.7426 140.297 27.6217C140.297 31.3833 142.812 34.0634 146.574 34.0634ZM143.188 26.2817C143.353 24.8005 144.693 23.5545 146.456 23.5545C148.149 23.5545 149.536 24.6125 149.677 26.2817H143.188ZM161.8 34.0634C165.115 34.0634 167.677 31.3363 167.677 27.5982C167.677 23.9307 165.279 21.133 161.988 21.133C159.801 21.133 158.72 22.3085 158.179 23.0138H157.968V16.1254H155.193V33.7578H157.944V32.3002H158.156C158.649 32.935 159.684 34.0634 161.8 34.0634ZM161.353 31.4774C159.261 31.4774 157.921 29.7141 157.921 27.6217C157.921 25.1767 159.496 23.7426 161.4 23.7426C163.351 23.7426 164.856 25.3413 164.856 27.6217C164.856 29.9492 163.304 31.4774 161.353 31.4774ZM174.577 34.0634C177.61 34.0634 179.538 32.4177 179.538 29.9962C179.538 25.0356 172.673 27.1985 172.673 24.8946C172.673 24.1658 173.378 23.6486 174.553 23.6486C175.729 23.6486 176.528 24.1423 176.763 25.2237L179.232 24.5419C178.785 22.332 176.928 21.133 174.553 21.133C171.756 21.133 170.016 22.7552 170.016 24.8476C170.016 29.8552 176.693 27.7628 176.693 30.2548C176.693 31.0777 175.988 31.5714 174.647 31.5714C173.354 31.5714 172.461 30.9601 172.202 29.6671L169.569 30.2548C169.898 32.7704 171.897 34.0634 174.577 34.0634ZM185.222 19.5343C186.233 19.5343 186.985 18.782 186.985 17.7946C186.985 16.8307 186.233 16.0784 185.222 16.0784C184.211 16.0784 183.459 16.8307 183.459 17.7946C183.459 18.782 184.211 19.5343 185.222 19.5343ZM183.811 33.7578H186.586V21.4386H181.648V23.8837H183.811V33.7578ZM195.562 33.7578H197.724V31.2893H195.585C194.739 31.2893 194.386 30.9131 194.386 30.0432V23.8837H197.866V21.4386H194.386V17.9827H191.753V21.4386H189.449V23.8837H191.588V30.0668C191.588 32.6764 193.164 33.7578 195.562 33.7578ZM206.152 34.0634C208.715 34.0634 210.972 32.7939 211.771 30.2313L209.232 29.6201C208.785 30.9836 207.492 31.6889 206.129 31.6889C204.107 31.6889 202.767 30.3724 202.743 28.3035H212.077V27.5277C212.077 23.8601 209.796 21.133 206.035 21.133C202.72 21.133 199.875 23.7426 199.875 27.6217C199.875 31.3833 202.391 34.0634 206.152 34.0634ZM202.767 26.2817C202.931 24.8005 204.271 23.5545 206.035 23.5545C207.727 23.5545 209.114 24.6125 209.256 26.2817H202.767ZM220.291 33.7578H227.673V31.3128H225.369V16.1254H220.291V18.5939H222.595V31.3128H220.291V33.7578ZM232.793 19.5343C233.804 19.5343 234.556 18.782 234.556 17.7946C234.556 16.8307 233.804 16.0784 232.793 16.0784C231.782 16.0784 231.03 16.8307 231.03 17.7946C231.03 18.782 231.782 19.5343 232.793 19.5343ZM231.382 33.7578H234.156V21.4386H229.219V23.8837H231.382V33.7578ZM237.96 33.7578H240.734V26.4933C240.734 24.9416 241.886 23.7661 243.415 23.7661C244.825 23.7661 245.907 24.824 245.907 26.3522V33.7578H248.681V25.6939C248.681 23.1548 246.964 21.133 244.261 21.133C242.615 21.133 241.487 21.9088 240.946 22.8492H240.734V21.4386H237.96V33.7578ZM251.965 33.7578H254.739V28.374H256.244L259.418 33.7578H262.733L258.618 27.128V26.9164L262.498 21.4386H259.206L256.197 25.835H254.739V16.1254H251.965V33.7578ZM269.03 34.0634C272.063 34.0634 273.99 32.4177 273.99 29.9962C273.99 25.0356 267.126 27.1985 267.126 24.8946C267.126 24.1658 267.831 23.6486 269.006 23.6486C270.182 23.6486 270.981 24.1423 271.216 25.2237L273.685 24.5419C273.238 22.332 271.381 21.133 269.006 21.133C266.209 21.133 264.469 22.7552 264.469 24.8476C264.469 29.8552 271.146 27.7628 271.146 30.2548C271.146 31.0777 270.44 31.5714 269.1 31.5714C267.807 31.5714 266.914 30.9601 266.655 29.6671L264.022 30.2548C264.351 32.7704 266.35 34.0634 269.03 34.0634Z" fill="#BAABD9"/>
</svg>