<svg width="551" height="188" viewBox="0 0 551 188" fill="none" xmlns="http://www.w3.org/2000/svg">
<mask id="mask0_370_36825" style="mask-type:alpha" maskUnits="userSpaceOnUse" x="0" y="61" width="65" height="66">
<rect y="61.75" width="64.5" height="64.5" fill="#D9D9D9"/>
</mask>
<g mask="url(#mask0_370_36825)">
<path d="M29.5586 107.438H34.9336V96.6875H45.6836V91.3125H34.9336V80.5625H29.5586V91.3125H18.8086V96.6875H29.5586V107.438ZM32.2461 120.875C28.5284 120.875 25.0346 120.169 21.7648 118.757C18.4951 117.347 15.6508 115.433 13.232 113.014C10.8133 110.595 8.89889 107.751 7.48884 104.481C6.07701 101.211 5.37109 97.7177 5.37109 94C5.37109 90.2823 6.07701 86.7885 7.48884 83.5188C8.89889 80.249 10.8133 77.4047 13.232 74.9859C15.6508 72.5672 18.4951 70.6519 21.7648 69.2401C25.0346 67.83 28.5284 67.125 32.2461 67.125C35.9638 67.125 39.4576 67.83 42.7273 69.2401C45.9971 70.6519 48.8414 72.5672 51.2602 74.9859C53.6789 77.4047 55.5933 80.249 57.0033 83.5188C58.4152 86.7885 59.1211 90.2823 59.1211 94C59.1211 97.7177 58.4152 101.211 57.0033 104.481C55.5933 107.751 53.6789 110.595 51.2602 113.014C48.8414 115.433 45.9971 117.347 42.7273 118.757C39.4576 120.169 35.9638 120.875 32.2461 120.875ZM32.2461 115.5C38.2482 115.5 43.332 113.417 47.4977 109.252C51.6633 105.086 53.7461 100.002 53.7461 94C53.7461 87.9979 51.6633 82.9141 47.4977 78.7484C43.332 74.5828 38.2482 72.5 32.2461 72.5C26.244 72.5 21.1602 74.5828 16.9945 78.7484C12.8289 82.9141 10.7461 87.9979 10.7461 94C10.7461 100.002 12.8289 105.086 16.9945 109.252C21.1602 113.417 26.244 115.5 32.2461 115.5Z" fill="#BAABD9"/>
</g>
<path d="M88.347 83.5H92.547L94.787 77.18H107.667L109.907 83.5H114.187L104.187 55.5H98.467L88.347 83.5ZM96.107 73.46L101.067 59.38H101.387L106.347 73.46H96.107ZM125.797 84.02C129.877 84.02 131.717 81.54 132.437 80.62H132.717V83.5H136.597V53.5H132.637V65.62H132.317C131.517 64.5 129.597 62.1 125.557 62.1C119.797 62.1 115.757 66.78 115.757 73.06C115.757 79.42 120.037 84.02 125.797 84.02ZM126.277 80.38C122.637 80.38 119.757 77.5 119.757 73.1C119.757 68.82 122.517 65.78 126.237 65.78C129.797 65.78 132.757 68.46 132.757 73.1C132.757 77.06 130.237 80.38 126.277 80.38ZM151.305 84.02C155.385 84.02 157.225 81.54 157.945 80.62H158.225V83.5H162.105V53.5H158.145V65.62H157.825C157.025 64.5 155.105 62.1 151.065 62.1C145.305 62.1 141.265 66.78 141.265 73.06C141.265 79.42 145.545 84.02 151.305 84.02ZM151.785 80.38C148.145 80.38 145.265 77.5 145.265 73.1C145.265 68.82 148.025 65.78 151.745 65.78C155.305 65.78 158.265 68.46 158.265 73.1C158.265 77.06 155.745 80.38 151.785 80.38ZM187.594 84.02C191.754 84.02 193.514 81.62 194.234 80.62H194.514C194.514 82.42 195.834 83.5 197.554 83.5H200.394V79.9H199.434C198.794 79.9 198.394 79.58 198.394 78.94V62.62H194.434V65.62H194.114C193.314 64.5 191.394 62.1 187.354 62.1C181.594 62.1 177.554 66.78 177.554 73.06C177.554 79.42 181.794 84.02 187.594 84.02ZM188.074 80.38C184.434 80.38 181.554 77.5 181.554 73.1C181.554 68.82 184.314 65.78 188.034 65.78C191.594 65.78 194.554 68.46 194.554 73.1C194.554 77.06 192.034 80.38 188.074 80.38ZM225.896 84.02C232.256 84.02 236.896 79.3 236.896 73.06C236.896 66.82 232.296 62.1 225.936 62.1C219.616 62.1 214.976 66.78 214.976 73.06C214.976 79.34 219.576 84.02 225.896 84.02ZM225.896 80.3C221.896 80.3 219.016 77.3 219.016 73.06C219.016 68.94 221.856 65.78 225.896 65.78C229.976 65.78 232.856 68.9 232.856 73.06C232.856 77.26 229.976 80.3 225.896 80.3ZM241.964 83.5H245.924V71.14C245.924 68.1 248.204 65.82 251.124 65.82C253.764 65.82 255.924 67.82 255.924 70.78V83.5H259.884V70.1C259.884 65.62 256.964 62.1 252.244 62.1C249.204 62.1 247.124 63.58 246.244 65.34H245.924V62.62H241.964V83.5ZM275.026 84.02C279.586 84.02 283.226 81.58 284.506 77.46L280.786 76.54C280.066 79.14 277.626 80.58 275.026 80.58C271.146 80.58 268.666 78.18 268.626 74.1H284.906V72.86C284.906 66.62 281.186 62.1 274.826 62.1C269.226 62.1 264.546 66.5 264.546 73.1C264.546 79.5 268.666 84.02 275.026 84.02ZM268.666 71.1C268.946 67.9 271.626 65.58 274.826 65.58C277.986 65.58 280.666 67.54 280.866 71.1H268.666ZM299.753 83.5H311.833V80.06H307.793V53.5H299.753V56.98H303.833V80.06H299.753V83.5ZM320.47 59.14C322.03 59.14 323.15 57.98 323.15 56.46C323.15 55.02 322.03 53.86 320.47 53.86C318.95 53.86 317.83 55.02 317.83 56.46C317.83 57.98 318.95 59.14 320.47 59.14ZM318.47 83.5H322.43V62.62H314.67V66.06H318.47V83.5ZM329.581 83.5H333.541V71.14C333.541 68.1 335.821 65.82 338.741 65.82C341.381 65.82 343.541 67.82 343.541 70.78V83.5H347.501V70.1C347.501 65.62 344.581 62.1 339.861 62.1C336.821 62.1 334.741 63.58 333.861 65.34H333.541V62.62H329.581V83.5ZM362.643 84.02C367.203 84.02 370.843 81.58 372.123 77.46L368.403 76.54C367.683 79.14 365.243 80.58 362.643 80.58C358.763 80.58 356.283 78.18 356.243 74.1H372.523V72.86C372.523 66.62 368.803 62.1 362.443 62.1C356.843 62.1 352.163 66.5 352.163 73.1C352.163 79.5 356.283 84.02 362.643 84.02ZM356.283 71.1C356.563 67.9 359.243 65.58 362.443 65.58C365.603 65.58 368.283 67.54 368.483 71.1H356.283ZM377.589 83.5H381.549V72.78C381.549 68.82 383.269 66.06 386.869 66.06H388.869V62.1H387.389C384.549 62.1 382.509 64.14 381.789 65.9H381.509V62.62H377.589V83.5ZM412.985 84.02C417.145 84.02 418.905 81.62 419.625 80.62H419.905C419.905 82.42 421.225 83.5 422.945 83.5H425.785V79.9H424.825C424.185 79.9 423.785 79.58 423.785 78.94V62.62H419.825V65.62H419.505C418.705 64.5 416.785 62.1 412.745 62.1C406.985 62.1 402.945 66.78 402.945 73.06C402.945 79.42 407.185 84.02 412.985 84.02ZM413.465 80.38C409.825 80.38 406.945 77.5 406.945 73.1C406.945 68.82 409.705 65.78 413.425 65.78C416.985 65.78 419.945 68.46 419.945 73.1C419.945 77.06 417.425 80.38 413.465 80.38ZM441.865 84.02C447.625 84.02 451.945 79.42 451.945 73.06C451.945 66.78 447.865 62.1 442.145 62.1C438.105 62.1 436.105 64.5 435.345 65.62H435.025V53.5H431.065V83.5H434.945V80.62H435.265C435.945 81.54 437.785 84.02 441.865 84.02ZM441.345 80.38C437.425 80.38 434.945 77.06 434.945 73.1C434.945 68.46 437.865 65.78 441.425 65.78C445.145 65.78 447.905 68.82 447.905 73.1C447.905 77.5 445.025 80.38 441.345 80.38ZM466.482 84.02C472.842 84.02 477.482 79.3 477.482 73.06C477.482 66.82 472.882 62.1 466.522 62.1C460.202 62.1 455.562 66.78 455.562 73.06C455.562 79.34 460.162 84.02 466.482 84.02ZM466.482 80.3C462.482 80.3 459.602 77.3 459.602 73.06C459.602 68.94 462.442 65.78 466.482 65.78C470.562 65.78 473.442 68.9 473.442 73.06C473.442 77.26 470.562 80.3 466.482 80.3ZM489.99 84.02C493.03 84.02 495.11 82.54 495.99 80.78H496.31V83.5H500.27V62.62H496.31V74.98C496.31 78.02 494.03 80.26 491.11 80.26C488.47 80.26 486.31 78.3 486.31 75.34V62.62H482.35V76.02C482.35 80.5 485.27 84.02 489.99 84.02ZM515.132 83.5H518.492V80.02H515.172C513.332 80.02 512.572 79.22 512.572 77.34V66.06H518.732V62.62H512.572V56.66H508.852V62.62H504.812V66.06H508.612V77.38C508.612 81.7 511.212 83.5 515.132 83.5ZM89.907 148.7H92.547C95.747 148.7 97.947 147.46 99.027 144.66L108.987 118.62H104.627L98.707 135.7H98.387L92.907 118.62H88.587L96.027 139.5H97.027L95.707 142.9C95.107 144.38 94.267 145.1 92.587 145.1H89.907V148.7ZM121.95 140.02C128.31 140.02 132.95 135.3 132.95 129.06C132.95 122.82 128.35 118.1 121.99 118.1C115.67 118.1 111.03 122.78 111.03 129.06C111.03 135.34 115.63 140.02 121.95 140.02ZM121.95 136.3C117.95 136.3 115.07 133.3 115.07 129.06C115.07 124.94 117.91 121.78 121.95 121.78C126.03 121.78 128.91 124.9 128.91 129.06C128.91 133.26 126.03 136.3 121.95 136.3ZM145.458 140.02C148.498 140.02 150.578 138.54 151.458 136.78H151.778V139.5H155.738V118.62H151.778V130.98C151.778 134.02 149.498 136.26 146.578 136.26C143.938 136.26 141.778 134.3 141.778 131.34V118.62H137.818V132.02C137.818 136.5 140.738 140.02 145.458 140.02ZM162.081 139.5H166.041V128.78C166.041 124.82 167.761 122.06 171.361 122.06H173.361V118.1H171.881C169.041 118.1 167.001 120.14 166.281 121.9H166.001V118.62H162.081V139.5ZM185.135 140.02C190.135 140.02 193.415 137.3 193.415 133.26C193.415 124.74 181.335 128.78 181.335 124.22C181.335 122.7 182.775 121.62 185.055 121.62C187.415 121.62 189.095 122.78 189.455 124.9L192.935 123.9C192.295 120.14 188.975 118.1 185.175 118.1C180.615 118.1 177.535 120.62 177.535 124.18C177.535 132.54 189.415 128.54 189.415 133.58C189.415 135.34 187.975 136.5 185.295 136.5C182.615 136.5 180.895 135.26 180.535 132.78L176.855 133.62C177.375 137.66 180.535 140.02 185.135 140.02ZM207.878 140.02C212.438 140.02 216.078 137.58 217.358 133.46L213.638 132.54C212.918 135.14 210.478 136.58 207.878 136.58C203.998 136.58 201.518 134.18 201.478 130.1H217.758V128.86C217.758 122.62 214.038 118.1 207.678 118.1C202.078 118.1 197.398 122.5 197.398 129.1C197.398 135.5 201.518 140.02 207.878 140.02ZM201.518 127.1C201.798 123.9 204.478 121.58 207.678 121.58C210.838 121.58 213.518 123.54 213.718 127.1H201.518ZM221.823 139.5H233.903V136.06H229.863V109.5H221.823V112.98H225.903V136.06H221.823V139.5ZM240.321 139.5H244.281V122.06H250.161V118.62H244.281V115.66C244.281 113.78 245.041 112.94 246.881 112.94H250.001V109.5H246.841C242.921 109.5 240.321 111.3 240.321 115.62V118.62H236.521V122.06H240.321V139.5ZM257.29 140.02C258.73 140.02 259.89 138.86 259.89 137.46C259.89 136.02 258.73 134.86 257.29 134.86C255.85 134.86 254.65 136.02 254.65 137.46C254.65 138.86 255.85 140.02 257.29 140.02ZM266.85 140.02C268.25 140.02 269.45 138.86 269.45 137.46C269.45 136.02 268.25 134.86 266.85 134.86C265.41 134.86 264.21 136.02 264.21 137.46C264.21 138.86 265.41 140.02 266.85 140.02ZM276.41 140.02C277.85 140.02 279.01 138.86 279.01 137.46C279.01 136.02 277.85 134.86 276.41 134.86C274.97 134.86 273.77 136.02 273.77 137.46C273.77 138.86 274.97 140.02 276.41 140.02Z" fill="#938F99"/>
</svg>