<svg width="196" height="54" viewBox="0 0 196 54" fill="none" xmlns="http://www.w3.org/2000/svg">
<mask id="mask0_370_37035" style="mask-type:alpha" maskUnits="userSpaceOnUse" x="0" y="3" width="48" height="48">
<rect y="3.49219" width="47.0198" height="47.0198" fill="#D9D9D9"/>
</mask>
<g mask="url(#mask0_370_37035)">
<path d="M21.5465 36.8014H25.4648V28.9648H33.3014V25.0465H25.4648V17.2099H21.5465V25.0465H13.7099V28.9648H21.5465V36.8014ZM23.5057 46.5972C20.7955 46.5972 18.2486 46.0826 15.8649 45.0534C13.4813 44.0255 11.4078 42.6299 9.6446 40.8667C7.88136 39.1035 6.48579 37.03 5.45788 34.6464C4.42867 32.2627 3.91406 29.7158 3.91406 27.0057C3.91406 24.2955 4.42867 21.7486 5.45788 19.3649C6.48579 16.9813 7.88136 14.9078 9.6446 13.1446C11.4078 11.3814 13.4813 9.98513 15.8649 8.95592C18.2486 7.92802 20.7955 7.41406 23.5057 7.41406C26.2158 7.41406 28.7627 7.92802 31.1464 8.95592C33.53 9.98513 35.6035 11.3814 37.3667 13.1446C39.1299 14.9078 40.5255 16.9813 41.5534 19.3649C42.5826 21.7486 43.0972 24.2955 43.0972 27.0057C43.0972 29.7158 42.5826 32.2627 41.5534 34.6464C40.5255 37.03 39.1299 39.1035 37.3667 40.8667C35.6035 42.6299 33.53 44.0255 31.1464 45.0534C28.7627 46.0826 26.2158 46.5972 23.5057 46.5972ZM23.5057 42.6789C27.8811 42.6789 31.5872 41.1606 34.6239 38.1239C37.6606 35.0872 39.1789 31.3811 39.1789 27.0057C39.1789 22.6302 37.6606 18.9241 34.6239 15.8874C31.5872 12.8507 27.8811 11.3324 23.5057 11.3324C19.1302 11.3324 15.4241 12.8507 12.3874 15.8874C9.35073 18.9241 7.83238 22.6302 7.83238 27.0057C7.83238 31.3811 9.35073 35.0872 12.3874 38.1239C15.4241 41.1606 19.1302 42.6789 23.5057 42.6789Z" fill="#BAABD9"/>
</g>
<path d="M74.7143 34.5H77.7236L72.0106 18.0431H68.014L62.254 34.5H65.1928L66.3918 30.9735H73.5153L74.7143 34.5ZM67.2616 28.3639L69.8242 20.8407H70.0593L72.6219 28.3639H67.2616ZM84.0569 34.8056C86.1963 34.8056 87.2072 33.6772 87.7244 33.0424H87.936V34.5H90.6632V16.8676H87.889V23.756H87.6774C87.1367 23.0507 86.0788 21.8752 83.8923 21.8752C80.5774 21.8752 78.2029 24.6729 78.2029 28.3404C78.2029 32.0785 80.742 34.8056 84.0569 34.8056ZM84.5036 32.2195C82.5758 32.2195 81.0006 30.6914 81.0006 28.3639C81.0006 26.0835 82.5052 24.4848 84.4801 24.4848C86.3844 24.4848 87.9595 25.9189 87.9595 28.3639C87.9595 30.4563 86.596 32.2195 84.5036 32.2195ZM98.9802 34.8056C101.12 34.8056 102.131 33.6772 102.648 33.0424H102.859V34.5H105.586V16.8676H102.812V23.756H102.601C102.06 23.0507 101.002 21.8752 98.8156 21.8752C95.5007 21.8752 93.1262 24.6729 93.1262 28.3404C93.1262 32.0785 95.6653 34.8056 98.9802 34.8056ZM99.4269 32.2195C97.4991 32.2195 95.9239 30.6914 95.9239 28.3639C95.9239 26.0835 97.4285 24.4848 99.4034 24.4848C101.308 24.4848 102.883 25.9189 102.883 28.3639C102.883 30.4563 101.519 32.2195 99.4269 32.2195ZM114.979 39.9073H117.754V32.9483H117.965C118.482 33.7007 119.587 34.8056 121.774 34.8056C125.065 34.8056 127.463 32.0315 127.463 28.3404C127.463 24.6258 124.901 21.8752 121.586 21.8752C119.47 21.8752 118.435 23.0272 117.942 23.6619H117.73V22.1808H114.979V39.9073ZM121.186 32.196C119.282 32.196 117.707 30.7854 117.707 28.3404C117.707 26.248 119.047 24.4848 121.139 24.4848C123.09 24.4848 124.618 26.0129 124.618 28.3404C124.618 30.6209 123.137 32.196 121.186 32.196ZM130.178 34.5H132.952V27.1649C132.952 25.6368 134.151 24.5083 135.656 24.5083C137.067 24.5083 138.219 25.5662 138.219 27.0944V34.5H140.993V26.4361C140.993 23.897 139.206 21.8752 136.502 21.8752C134.857 21.8752 133.705 22.6745 133.164 23.5914H132.952V16.8676H130.178V34.5ZM149.941 34.8056C153.726 34.8056 156.453 32.008 156.453 28.3404C156.453 24.6729 153.749 21.8752 149.964 21.8752C146.179 21.8752 143.452 24.6729 143.452 28.3404C143.452 32.0315 146.156 34.8056 149.941 34.8056ZM149.941 32.1725C147.801 32.1725 146.273 30.5738 146.273 28.3404C146.273 26.154 147.778 24.5083 149.941 24.5083C152.104 24.5083 153.632 26.154 153.632 28.3404C153.632 30.5503 152.104 32.1725 149.941 32.1725ZM164.324 34.5H166.487V32.0315H164.348C163.502 32.0315 163.149 31.6553 163.149 30.7854V24.6258H166.628V22.1808H163.149V18.7249H160.516V22.1808H158.212V24.6258H160.351V30.8089C160.351 33.4185 161.926 34.5 164.324 34.5ZM175.127 34.8056C178.912 34.8056 181.639 32.008 181.639 28.3404C181.639 24.6729 178.935 21.8752 175.15 21.8752C171.365 21.8752 168.638 24.6729 168.638 28.3404C168.638 32.0315 171.342 34.8056 175.127 34.8056ZM175.127 32.1725C172.987 32.1725 171.459 30.5738 171.459 28.3404C171.459 26.154 172.964 24.5083 175.127 24.5083C177.29 24.5083 178.818 26.154 178.818 28.3404C178.818 30.5503 177.29 32.1725 175.127 32.1725Z" fill="#BAABD9"/>
</svg>