<svg width="202" height="53" viewBox="0 0 202 53" fill="none" xmlns="http://www.w3.org/2000/svg">
<mask id="mask0_370_36819" style="mask-type:alpha" maskUnits="userSpaceOnUse" x="0" y="2" width="48" height="48">
<rect y="2.74219" width="47.0198" height="47.0198" fill="#D9D9D9"/>
</mask>
<g mask="url(#mask0_370_36819)">
<path d="M21.5465 36.0514H25.4648V28.2148H33.3014V24.2965H25.4648V16.4599H21.5465V24.2965H13.7099V28.2148H21.5465V36.0514ZM23.5057 45.8472C20.7955 45.8472 18.2486 45.3326 15.8649 44.3034C13.4813 43.2755 11.4078 41.8799 9.6446 40.1167C7.88136 38.3535 6.48579 36.28 5.45788 33.8964C4.42867 31.5127 3.91406 28.9658 3.91406 26.2557C3.91406 23.5455 4.42867 20.9986 5.45788 18.6149C6.48579 16.2313 7.88136 14.1578 9.6446 12.3946C11.4078 10.6314 13.4813 9.23513 15.8649 8.20592C18.2486 7.17802 20.7955 6.66406 23.5057 6.66406C26.2158 6.66406 28.7627 7.17802 31.1464 8.20592C33.53 9.23513 35.6035 10.6314 37.3667 12.3946C39.1299 14.1578 40.5255 16.2313 41.5534 18.6149C42.5826 20.9986 43.0972 23.5455 43.0972 26.2557C43.0972 28.9658 42.5826 31.5127 41.5534 33.8964C40.5255 36.28 39.1299 38.3535 37.3667 40.1167C35.6035 41.8799 33.53 43.2755 31.1464 44.3034C28.7627 45.3326 26.2158 45.8472 23.5057 45.8472ZM23.5057 41.9289C27.8811 41.9289 31.5872 40.4106 34.6239 37.3739C37.6606 34.3372 39.1789 30.6311 39.1789 26.2557C39.1789 21.8802 37.6606 18.1741 34.6239 15.1374C31.5872 12.1007 27.8811 10.5824 23.5057 10.5824C19.1302 10.5824 15.4241 12.1007 12.3874 15.1374C9.35073 18.1741 7.83238 21.8802 7.83238 26.2557C7.83238 30.6311 9.35073 34.3372 12.3874 37.3739C15.4241 40.4106 19.1302 41.9289 23.5057 41.9289Z" fill="#BAABD9"/>
</g>
<path d="M83.6998 33.7578H86.7091L80.9962 17.3009H76.9995L71.2396 33.7578H74.1783L75.3773 30.2313H82.5008L83.6998 33.7578ZM76.2472 27.6217L78.8098 20.0986H79.0449L81.6074 27.6217H76.2472ZM93.0424 34.0634C95.1818 34.0634 96.1928 32.935 96.71 32.3002H96.9216V33.7578H99.6487V16.1254H96.8745V23.0138H96.663C96.1222 22.3085 95.0643 21.133 92.8779 21.133C89.563 21.133 87.1885 23.9307 87.1885 27.5982C87.1885 31.3363 89.7275 34.0634 93.0424 34.0634ZM93.4891 31.4774C91.5613 31.4774 89.9861 29.9492 89.9861 27.6217C89.9861 25.3413 91.4908 23.7426 93.4656 23.7426C95.3699 23.7426 96.9451 25.1767 96.9451 27.6217C96.9451 29.7141 95.5815 31.4774 93.4891 31.4774ZM107.966 34.0634C110.105 34.0634 111.116 32.935 111.633 32.3002H111.845V33.7578H114.572V16.1254H111.798V23.0138H111.586C111.046 22.3085 109.988 21.133 107.801 21.133C104.486 21.133 102.112 23.9307 102.112 27.5982C102.112 31.3363 104.651 34.0634 107.966 34.0634ZM108.412 31.4774C106.485 31.4774 104.909 29.9492 104.909 27.6217C104.909 25.3413 106.414 23.7426 108.389 23.7426C110.293 23.7426 111.868 25.1767 111.868 27.6217C111.868 29.7141 110.505 31.4774 108.412 31.4774ZM128.15 34.0634C131.182 34.0634 133.11 32.4177 133.11 29.9962C133.11 25.0356 126.245 27.1985 126.245 24.8946C126.245 24.1658 126.951 23.6486 128.126 23.6486C129.302 23.6486 130.101 24.1423 130.336 25.2237L132.805 24.5419C132.358 22.332 130.501 21.133 128.126 21.133C125.329 21.133 123.589 22.7552 123.589 24.8476C123.589 29.8552 130.266 27.7628 130.266 30.2548C130.266 31.0777 129.56 31.5714 128.22 31.5714C126.927 31.5714 126.034 30.9601 125.775 29.6671L123.142 30.2548C123.471 32.7704 125.47 34.0634 128.15 34.0634ZM135.927 33.7578H138.701V28.374H140.205L143.379 33.7578H146.694L142.58 27.128V26.9164L146.459 21.4386H143.168L140.158 25.835H138.701V16.1254H135.927V33.7578ZM151.675 19.5343C152.686 19.5343 153.438 18.782 153.438 17.7946C153.438 16.8307 152.686 16.0784 151.675 16.0784C150.664 16.0784 149.911 16.8307 149.911 17.7946C149.911 18.782 150.664 19.5343 151.675 19.5343ZM150.264 33.7578H153.038V21.4386H148.101V23.8837H150.264V33.7578ZM156.254 33.7578H163.636V31.3128H161.332V16.1254H156.254V18.5939H158.558V31.3128H156.254V33.7578ZM165.759 33.7578H173.141V31.3128H170.837V16.1254H165.759V18.5939H168.063V31.3128H165.759V33.7578ZM180.037 34.0634C183.07 34.0634 184.997 32.4177 184.997 29.9962C184.997 25.0356 178.132 27.1985 178.132 24.8946C178.132 24.1658 178.838 23.6486 180.013 23.6486C181.189 23.6486 181.988 24.1423 182.223 25.2237L184.692 24.5419C184.245 22.332 182.388 21.133 180.013 21.133C177.216 21.133 175.476 22.7552 175.476 24.8476C175.476 29.8552 182.153 27.7628 182.153 30.2548C182.153 31.0777 181.447 31.5714 180.107 31.5714C178.814 31.5714 177.921 30.9601 177.662 29.6671L175.029 30.2548C175.358 32.7704 177.357 34.0634 180.037 34.0634Z" fill="#BAABD9"/>
</svg>
