<svg width="49" height="49" viewBox="0 0 49 49" fill="none" xmlns="http://www.w3.org/2000/svg">
<path d="M16.2423 11.4711C17.3231 11.451 18.4024 11.5618 19.4566 11.8011C20.3441 11.9948 21.1868 12.3554 21.9398 12.8637C22.6353 13.3691 23.1856 14.0485 23.5354 14.8338C23.9375 15.7995 24.1315 16.839 24.1047 17.8847C24.1503 19.0329 23.8571 20.1691 23.2615 21.1518C22.6349 22.0799 21.7689 22.8211 20.7551 23.2968C22.1308 23.6677 23.3291 24.5172 24.1344 25.6926C24.9075 26.9381 25.296 28.3839 25.2515 29.8491C25.2769 31.0173 25.0354 32.1759 24.5452 33.2366C24.0922 34.1619 23.4287 34.9682 22.6081 35.5912C21.7632 36.2072 20.8125 36.663 19.8031 36.9359C18.7563 37.2255 17.6749 37.371 16.5888 37.3682H4.66406V11.4711H16.2423ZM15.5542 21.9454C16.4034 21.9804 17.2394 21.7262 17.9253 21.2244C18.2538 20.9319 18.5094 20.5667 18.6715 20.1578C18.8337 19.749 18.898 19.3079 18.8592 18.8698C18.8812 18.3581 18.7793 17.8486 18.5622 17.3848C18.3781 17.0154 18.0917 16.7067 17.7372 16.4954C17.3782 16.2628 16.9748 16.1071 16.5525 16.0383C16.0943 15.9496 15.6281 15.9092 15.1615 15.9179H10.0663V21.9685H15.5542V21.9454ZM15.8512 32.9709C16.3648 32.9779 16.8773 32.9225 17.3775 32.8059C17.8346 32.705 18.2682 32.5173 18.6546 32.2531C19.0333 31.9891 19.3391 31.6339 19.544 31.2202C19.7815 30.6928 19.8907 30.1166 19.8625 29.5389C19.914 29.0124 19.8442 28.4811 19.6586 27.9857C19.473 27.4903 19.1764 27.044 18.7916 26.681C17.976 26.0803 16.9765 25.7827 15.9651 25.8395H10.0663V32.9709H15.8512Z" fill="#938F99"/>
<path d="M32.9455 32.8724C33.3695 33.2654 33.869 33.5681 34.4136 33.7621C34.9582 33.9561 35.5365 34.0374 36.1135 34.001C37.0282 34.0241 37.9252 33.7458 38.6661 33.209C39.2689 32.817 39.7254 32.237 39.9647 31.559H44.2729C43.8139 33.4892 42.6929 35.1975 41.1049 36.3869C39.5814 37.3981 37.7811 37.9102 35.9535 37.8522C34.6491 37.8693 33.3546 37.6241 32.1469 37.1311C31.0543 36.6755 30.0745 35.9868 29.2758 35.1131C28.4801 34.1977 27.8689 33.137 27.4756 31.9896C27.0343 30.7071 26.8182 29.3578 26.8371 28.0015C26.829 26.668 27.0523 25.3432 27.4971 24.086C28.0946 22.3174 29.237 20.7835 30.7604 19.7044C32.2838 18.6254 34.1099 18.0567 35.9766 18.0799C37.3548 18.0511 38.7176 18.3736 39.9366 19.0171C41.0386 19.6214 41.9892 20.4676 42.7169 21.4922C43.4614 22.5672 43.995 23.7739 44.2894 25.048C44.6123 26.4161 44.7274 27.8251 44.631 29.2275H31.7987C31.6947 30.5451 32.1058 31.8517 32.9455 32.8724V32.8724ZM38.5754 23.0234C38.2163 22.6642 37.7844 22.3862 37.3088 22.208C36.8332 22.0298 36.3249 21.9556 35.8182 21.9905C35.146 21.9648 34.4786 22.1138 33.881 22.4228C33.4073 22.6836 32.9892 23.0344 32.6501 23.4557C32.3497 23.8506 32.1258 24.2984 31.9901 24.7757C31.8679 25.1738 31.7915 25.5846 31.7624 26H39.7106C39.6413 24.917 39.2468 23.8802 38.5787 23.025L38.5754 23.0234Z" fill="#938F99"/>
<path d="M40.6978 13.2031H30.7383V15.7491H40.6978V13.2031Z" fill="#938F99"/>
</svg>
