<svg width="187" height="187" viewBox="0 0 187 187" fill="none" xmlns="http://www.w3.org/2000/svg">
<path d="M36.482 141.236C44.3977 135.183 53.2445 130.409 63.0227 126.913C72.8008 123.424 83.0445 121.68 93.7539 121.68C104.463 121.68 114.707 123.424 124.485 126.913C134.263 130.409 143.11 135.183 151.026 141.236C156.458 134.872 160.689 127.655 163.719 119.584C166.742 111.514 168.254 102.899 168.254 93.7422C168.254 73.0995 160.999 55.5206 146.491 41.0055C131.976 26.4966 114.397 19.2422 93.7539 19.2422C73.1112 19.2422 55.5354 26.4966 41.0265 41.0055C26.5114 55.5206 19.2539 73.0995 19.2539 93.7422C19.2539 102.899 20.7687 111.514 23.7984 119.584C26.8219 127.655 31.0497 134.872 36.482 141.236ZM93.7539 103.055C84.5966 103.055 76.8734 99.9133 70.5844 93.6304C64.3016 87.3414 61.1602 79.6182 61.1602 70.4609C61.1602 61.3036 64.3016 53.5805 70.5844 47.2914C76.8734 41.0086 84.5966 37.8672 93.7539 37.8672C102.911 37.8672 110.634 41.0086 116.923 47.2914C123.206 53.5805 126.348 61.3036 126.348 70.4609C126.348 79.6182 123.206 87.3414 116.923 93.6304C110.634 99.9133 102.911 103.055 93.7539 103.055ZM93.7539 186.867C80.8716 186.867 68.7654 184.421 57.4352 179.529C46.105 174.643 36.2492 168.009 27.868 159.628C19.4867 151.247 12.8531 141.391 7.96716 130.061C3.07499 118.731 0.628906 106.624 0.628906 93.7422C0.628906 80.8599 3.07499 68.7536 7.96716 57.4234C12.8531 46.0932 19.4867 36.2375 27.868 27.8563C36.2492 19.475 46.105 12.8383 57.4352 7.94612C68.7654 3.06017 80.8716 0.617188 93.7539 0.617188C106.636 0.617188 118.742 3.06017 130.073 7.94612C141.403 12.8383 151.259 19.475 159.64 27.8563C168.021 36.2375 174.655 46.0932 179.541 57.4234C184.433 68.7536 186.879 80.8599 186.879 93.7422C186.879 106.624 184.433 118.731 179.541 130.061C174.655 141.391 168.021 151.247 159.64 159.628C151.259 168.009 141.403 174.643 130.073 179.529C118.742 184.421 106.636 186.867 93.7539 186.867Z" fill="#F3F1FF"/>
</svg>