<svg width="210" height="210" viewBox="0 0 210 210" fill="none" xmlns="http://www.w3.org/2000/svg">
<circle cx="105" cy="105" r="105" fill="#6750A4"/>
<mask id="mask0_207_35844" style="mask-type:alpha" maskUnits="userSpaceOnUse" x="36" y="34" width="132" height="132">
<rect x="36" y="34" width="131.09" height="131.09" fill="#D9D9D9"/>
</mask>
<g mask="url(#mask0_207_35844)">
<path d="M68.7718 143.245C65.7677 143.245 63.1959 142.175 61.0566 140.036C58.9173 137.897 57.8477 135.325 57.8477 132.321V115.934H68.7718V132.321H134.317V115.934H145.241V132.321C145.241 135.325 144.171 137.897 142.032 140.036C139.893 142.175 137.321 143.245 134.317 143.245H68.7718ZM101.544 121.396L74.2339 94.0861L81.8808 86.1661L96.0822 100.367V55.8516H107.006V100.367L121.208 86.1661L128.855 94.0861L101.544 121.396Z" fill="white"/>
</g>
</svg>