<svg width="24" height="24" viewBox="0 0 24 24" fill="none" xmlns="http://www.w3.org/2000/svg">
<mask id="mask0_586_36356" style="mask-type:alpha" maskUnits="userSpaceOnUse" x="0" y="0" width="24" height="24">
<rect width="23.1891" height="23.1891" fill="#D9D9D9"/>
</mask>
<g mask="url(#mask0_586_36356)">
<path d="M4.83086 18.3572H6.18356L14.5171 10.0236L13.1644 8.67091L4.83086 17.0045V18.3572ZM18.6477 8.6226L14.5413 4.56452L15.894 3.21182C16.2644 2.84144 16.7194 2.65625 17.2592 2.65625C17.7984 2.65625 18.2531 2.84144 18.6235 3.21182L19.9762 4.56452C20.3466 4.9349 20.5398 5.38193 20.5559 5.90562C20.5721 6.42866 20.3949 6.87537 20.0245 7.24575L18.6477 8.6226ZM17.2467 10.0478L7.00483 20.2896H2.89844V16.1832L13.1403 5.94137L17.2467 10.0478Z" fill="#C6C6C6"/>
</g>
</svg>
