<svg width="250" height="54" viewBox="0 0 250 54" fill="none" xmlns="http://www.w3.org/2000/svg">
<mask id="mask0_593_37616" style="mask-type:alpha" maskUnits="userSpaceOnUse" x="0" y="3" width="48" height="48">
<rect y="3.49219" width="47.0198" height="47.0198" fill="#D9D9D9"/>
</mask>
<g mask="url(#mask0_593_37616)">
<path d="M21.5465 36.8014H25.4648V28.9648H33.3014V25.0465H25.4648V17.2099H21.5465V25.0465H13.7099V28.9648H21.5465V36.8014ZM23.5057 46.5972C20.7955 46.5972 18.2486 46.0826 15.8649 45.0534C13.4813 44.0255 11.4078 42.6299 9.6446 40.8667C7.88136 39.1035 6.48579 37.03 5.45788 34.6464C4.42867 32.2627 3.91406 29.7158 3.91406 27.0057C3.91406 24.2955 4.42867 21.7486 5.45788 19.3649C6.48579 16.9813 7.88136 14.9078 9.6446 13.1446C11.4078 11.3814 13.4813 9.98513 15.8649 8.95592C18.2486 7.92802 20.7955 7.41406 23.5057 7.41406C26.2158 7.41406 28.7627 7.92802 31.1464 8.95592C33.53 9.98513 35.6035 11.3814 37.3667 13.1446C39.1299 14.9078 40.5255 16.9813 41.5534 19.3649C42.5826 21.7486 43.0972 24.2955 43.0972 27.0057C43.0972 29.7158 42.5826 32.2627 41.5534 34.6464C40.5255 37.03 39.1299 39.1035 37.3667 40.8667C35.6035 42.6299 33.53 44.0255 31.1464 45.0534C28.7627 46.0826 26.2158 46.5972 23.5057 46.5972ZM23.5057 42.6789C27.8811 42.6789 31.5872 41.1606 34.6239 38.1239C37.6606 35.0872 39.1789 31.3811 39.1789 27.0057C39.1789 22.6302 37.6606 18.9241 34.6239 15.8874C31.5872 12.8507 27.8811 11.3324 23.5057 11.3324C19.1302 11.3324 15.4241 12.8507 12.3874 15.8874C9.35073 18.9241 7.83238 22.6302 7.83238 27.0057C7.83238 31.3811 9.35073 35.0872 12.3874 38.1239C15.4241 41.1606 19.1302 42.6789 23.5057 42.6789Z" fill="#BAABD9"/>
</g>
<path d="M76.3332 34.5H79.3425L73.6296 18.0431H69.6329L63.873 34.5H66.8117L68.0107 30.9735H75.1342L76.3332 34.5ZM68.8806 28.3639L71.4432 20.8407H71.6783L74.2408 28.3639H68.8806ZM85.6758 34.8056C87.8152 34.8056 88.8262 33.6772 89.3434 33.0424H89.555V34.5H92.2821V16.8676H89.508V23.756H89.2964C88.7556 23.0507 87.6977 21.8752 85.5113 21.8752C82.1964 21.8752 79.8219 24.6729 79.8219 28.3404C79.8219 32.0785 82.3609 34.8056 85.6758 34.8056ZM86.1225 32.2195C84.1947 32.2195 82.6196 30.6914 82.6196 28.3639C82.6196 26.0835 84.1242 24.4848 86.099 24.4848C88.0033 24.4848 89.5785 25.9189 89.5785 28.3639C89.5785 30.4563 88.2149 32.2195 86.1225 32.2195ZM100.599 34.8056C102.739 34.8056 103.749 33.6772 104.267 33.0424H104.478V34.5H107.205V16.8676H104.431V23.756H104.22C103.679 23.0507 102.621 21.8752 100.435 21.8752C97.1197 21.8752 94.7452 24.6729 94.7452 28.3404C94.7452 32.0785 97.2842 34.8056 100.599 34.8056ZM101.046 32.2195C99.118 32.2195 97.5428 30.6914 97.5428 28.3639C97.5428 26.0835 99.0475 24.4848 101.022 24.4848C102.927 24.4848 104.502 25.9189 104.502 28.3639C104.502 30.4563 103.138 32.2195 101.046 32.2195ZM122.053 34.8056C124.615 34.8056 126.872 33.5361 127.672 30.9735L125.132 30.3623C124.686 31.7258 123.393 32.4311 122.029 32.4311C120.007 32.4311 118.667 31.1146 118.644 29.0457H127.977V28.2699C127.977 24.6023 125.697 21.8752 121.935 21.8752C118.62 21.8752 115.775 24.4848 115.775 28.3639C115.775 32.1255 118.291 34.8056 122.053 34.8056ZM118.667 27.0239C118.832 25.5427 120.172 24.2967 121.935 24.2967C123.628 24.2967 125.015 25.3546 125.156 27.0239H118.667ZM135.703 34.8056C137.843 34.8056 138.854 33.6772 139.371 33.0424H139.582V34.5H142.31V16.8676H139.535V23.756H139.324C138.783 23.0507 137.725 21.8752 135.539 21.8752C132.224 21.8752 129.849 24.6729 129.849 28.3404C129.849 32.0785 132.388 34.8056 135.703 34.8056ZM136.15 32.2195C134.222 32.2195 132.647 30.6914 132.647 28.3639C132.647 26.0835 134.152 24.4848 136.126 24.4848C138.031 24.4848 139.606 25.9189 139.606 28.3639C139.606 30.4563 138.242 32.2195 136.15 32.2195ZM150.015 34.8056C151.661 34.8056 152.789 34.0298 153.33 33.0894H153.542V34.5H156.316V22.1808H153.542V29.3748C153.542 30.9265 152.39 32.102 150.862 32.102C149.451 32.102 148.37 31.044 148.37 29.5159V22.1808H145.595V30.2447C145.595 32.7838 147.312 34.8056 150.015 34.8056ZM165.425 34.8056C168.316 34.8056 170.738 33.207 171.443 30.2212L168.81 29.5864C168.481 31.1851 167.164 32.1725 165.495 32.1725C163.379 32.1725 161.875 30.5503 161.875 28.3404C161.875 26.1775 163.332 24.5083 165.472 24.5083C167.141 24.5083 168.458 25.5192 168.787 27.1179L171.42 26.4831C170.714 23.4974 168.293 21.8752 165.401 21.8752C161.64 21.8752 159.03 24.7434 159.03 28.3404C159.03 31.9374 161.593 34.8056 165.425 34.8056ZM179.14 34.8056C181.28 34.8056 182.361 33.7007 182.831 32.9483H183.043C183.137 33.7477 183.701 34.5 184.806 34.5H186.899V32.149H186.358C185.982 32.149 185.794 31.9374 185.794 31.6083V22.1808H183.02V23.6854H182.808C182.267 22.9331 181.139 21.8752 179.07 21.8752C175.778 21.8752 173.333 24.6023 173.333 28.3404C173.333 32.0785 175.825 34.8056 179.14 34.8056ZM179.634 32.1255C177.683 32.1255 176.155 30.6914 176.155 28.3639C176.155 26.0835 177.636 24.5318 179.611 24.5318C181.491 24.5318 183.067 25.9189 183.067 28.3639C183.067 30.4563 181.726 32.1255 179.634 32.1255ZM194.665 34.5H196.828V32.0315H194.689C193.842 32.0315 193.49 31.6553 193.49 30.7854V24.6258H196.969V22.1808H193.49V18.7249H190.856V22.1808H188.552V24.6258H190.692V30.8089C190.692 33.4185 192.267 34.5 194.665 34.5ZM202.67 20.2765C203.68 20.2765 204.433 19.5242 204.433 18.5368C204.433 17.5729 203.68 16.8206 202.67 16.8206C201.659 16.8206 200.906 17.5729 200.906 18.5368C200.906 19.5242 201.659 20.2765 202.67 20.2765ZM201.259 34.5H204.033V22.1808H199.096V24.6258H201.259V34.5ZM213.503 34.8056C217.288 34.8056 220.015 32.008 220.015 28.3404C220.015 24.6729 217.311 21.8752 213.526 21.8752C209.741 21.8752 207.014 24.6729 207.014 28.3404C207.014 32.0315 209.718 34.8056 213.503 34.8056ZM213.503 32.1725C211.363 32.1725 209.835 30.5738 209.835 28.3404C209.835 26.154 211.34 24.5083 213.503 24.5083C215.666 24.5083 217.194 26.154 217.194 28.3404C217.194 30.5503 215.666 32.1725 213.503 32.1725ZM222.714 34.5H225.488V27.2354C225.488 25.6838 226.64 24.5083 228.169 24.5083C229.579 24.5083 230.661 25.5662 230.661 27.0944V34.5H233.435V26.4361C233.435 23.897 231.719 21.8752 229.015 21.8752C227.369 21.8752 226.241 22.651 225.7 23.5914H225.488V22.1808H222.714V34.5Z" fill="#BAABD9"/>
</svg>
