<svg width="22" height="22" viewBox="0 0 22 22" fill="none" xmlns="http://www.w3.org/2000/svg">
<mask id="mask0_434_36081" style="mask-type:alpha" maskUnits="userSpaceOnUse" x="0" y="0" width="22" height="22">
<rect width="22" height="22" fill="#D9D9D9"/>
</mask>
<g mask="url(#mask0_434_36081)">
<mask id="mask1_434_36081" style="mask-type:alpha" maskUnits="userSpaceOnUse" x="0" y="0" width="20" height="20">
<rect width="20" height="20" fill="#D9D9D9"/>
</mask>
<g mask="url(#mask1_434_36081)">
<path d="M3.33073 16.6615C2.8724 16.6615 2.48017 16.4984 2.15406 16.1723C1.8274 15.8456 1.66406 15.4531 1.66406 14.9948V4.99479C1.66406 4.53646 1.8274 4.14424 2.15406 3.81812C2.48017 3.49146 2.8724 3.32812 3.33073 3.32812H16.6641C17.1224 3.32812 17.5149 3.49146 17.8416 3.81812C18.1677 4.14424 18.3307 4.53646 18.3307 4.99479V14.9948C18.3307 15.4531 18.1677 15.8456 17.8416 16.1723C17.5149 16.4984 17.1224 16.6615 16.6641 16.6615H3.33073ZM9.9974 10.8281L3.33073 6.66146V14.9948H16.6641V6.66146L9.9974 10.8281ZM9.9974 9.16146L16.6641 4.99479H3.33073L9.9974 9.16146ZM3.33073 6.66146V4.99479V14.9948V6.66146Z" fill="#BAABD9"/>
</g>
</g>
</svg>
