<svg width="291" height="88" viewBox="0 0 291 88" fill="none" xmlns="http://www.w3.org/2000/svg">
<path d="M3.01225 59V27.0519H23.0939V32.5287H9.03676V40.2419H21.9986V45.7187H9.03676V59H3.01225ZM26.9359 59V36.3625H32.6866V59H26.9359ZM29.8112 33.7153C28.7767 33.7153 27.8944 33.3806 27.1641 32.7113C26.4643 32.0419 26.1144 31.1595 26.1144 30.0641C26.1144 28.9688 26.4643 28.0864 27.1641 27.417C27.8944 26.7476 28.7767 26.4129 29.8112 26.4129C30.8762 26.4129 31.7586 26.7476 32.4584 27.417C33.1582 28.0864 33.5081 28.9688 33.5081 30.0641C33.5081 31.1595 33.1582 32.0419 32.4584 32.7113C31.7586 33.3806 30.8762 33.7153 29.8112 33.7153ZM38.4201 59V36.3625H44.0795V39.3291H44.901C45.2661 38.538 45.9507 37.7925 46.9548 37.0927C47.9589 36.3625 49.4803 35.9973 51.5188 35.9973C53.2836 35.9973 54.8202 36.4081 56.1285 37.2296C57.4673 38.0207 58.5018 39.1313 59.232 40.5614C59.9623 41.961 60.3274 43.604 60.3274 45.4905V59H54.5767V45.9469C54.5767 44.243 54.1508 42.9651 53.2988 42.1131C52.4773 41.2612 51.2906 40.8352 49.7389 40.8352C47.9741 40.8352 46.6049 41.4285 45.6313 42.6152C44.6576 43.7714 44.1708 45.3992 44.1708 47.4987V59H38.4201ZM75.0332 59.639C73.238 59.639 71.5493 59.1978 69.9671 58.3154C68.4153 57.4026 67.1678 56.079 66.2246 54.3447C65.2814 52.6104 64.8098 50.5109 64.8098 48.0464V47.3161C64.8098 44.8515 65.2814 42.7521 66.2246 41.0178C67.1678 39.2834 68.4153 37.9751 69.9671 37.0927C71.5189 36.1799 73.2076 35.7235 75.0332 35.7235C76.4024 35.7235 77.5434 35.8909 78.4562 36.2256C79.3994 36.5298 80.1601 36.9254 80.7382 37.4122C81.3163 37.899 81.7575 38.4163 82.0618 38.964H82.8833V27.0519H88.6339V59H82.9746V56.2616H82.153C81.6358 57.1135 80.8295 57.8894 79.7341 58.5892C78.6692 59.2891 77.1022 59.639 75.0332 59.639ZM76.7675 54.6185C78.5322 54.6185 80.0079 54.0556 81.1946 52.9299C82.3812 51.7736 82.9746 50.1002 82.9746 47.9094V47.453C82.9746 45.2623 82.3812 43.604 81.1946 42.4783C80.0384 41.322 78.5627 40.7439 76.7675 40.7439C75.0027 40.7439 73.527 41.322 72.3404 42.4783C71.1538 43.604 70.5604 45.2623 70.5604 47.453V47.9094C70.5604 50.1002 71.1538 51.7736 72.3404 52.9299C73.527 54.0556 75.0027 54.6185 76.7675 54.6185Z" fill="white"/>
<path d="M103.362 59.639C100.076 59.639 97.459 58.7414 95.5117 56.9462C93.5948 55.151 92.6364 52.6408 92.6364 49.4156V46.4033H98.6609V49.4156C98.6609 50.8456 99.0564 51.9714 99.8475 52.7929C100.639 53.584 101.749 53.9796 103.179 53.9796C104.518 53.9796 105.553 53.584 106.283 52.7929C107.043 52.0018 107.424 50.876 107.424 49.4156V32.5287H101.947V27.0519H117.1V32.5287H113.448V49.4156C113.448 52.7321 112.551 55.2727 110.756 57.0375C108.96 58.7718 106.496 59.639 103.362 59.639ZM130.621 59.639C128.37 59.639 126.346 59.1826 124.551 58.2698C122.756 57.357 121.341 56.0334 120.306 54.2991C119.272 52.5647 118.755 50.4805 118.755 48.0464V47.3161C118.755 44.882 119.272 42.7977 120.306 41.0634C121.341 39.3291 122.756 38.0055 124.551 37.0927C126.346 36.1799 128.37 35.7235 130.621 35.7235C132.873 35.7235 134.896 36.1799 136.691 37.0927C138.486 38.0055 139.901 39.3291 140.936 41.0634C141.97 42.7977 142.488 44.882 142.488 47.3161V48.0464C142.488 50.4805 141.97 52.5647 140.936 54.2991C139.901 56.0334 138.486 57.357 136.691 58.2698C134.896 59.1826 132.873 59.639 130.621 59.639ZM130.621 54.5273C132.386 54.5273 133.846 53.9644 135.003 52.8386C136.159 51.6824 136.737 50.0393 136.737 47.9094V47.453C136.737 45.3232 136.159 43.6953 135.003 42.5695C133.877 41.4133 132.416 40.8352 130.621 40.8352C128.856 40.8352 127.396 41.4133 126.24 42.5695C125.083 43.6953 124.505 45.3232 124.505 47.453V47.9094C124.505 50.0393 125.083 51.6824 126.24 52.8386C127.396 53.9644 128.856 54.5273 130.621 54.5273ZM160.758 59.639C158.719 59.639 157.152 59.2891 156.057 58.5892C154.961 57.8894 154.155 57.1135 153.638 56.2616H152.816V59H147.157V27.0519H152.907V38.964H153.729C154.064 38.4163 154.505 37.899 155.053 37.4122C155.631 36.9254 156.376 36.5298 157.289 36.2256C158.232 35.8909 159.388 35.7235 160.758 35.7235C162.583 35.7235 164.272 36.1799 165.824 37.0927C167.375 37.9751 168.623 39.2834 169.566 41.0178C170.509 42.7521 170.981 44.8515 170.981 47.3161V48.0464C170.981 50.5109 170.509 52.6104 169.566 54.3447C168.623 56.079 167.375 57.4026 165.824 58.3154C164.272 59.1978 162.583 59.639 160.758 59.639ZM159.023 54.6185C160.788 54.6185 162.264 54.0556 163.45 52.9299C164.637 51.7736 165.23 50.1002 165.23 47.9094V47.453C165.23 45.2623 164.637 43.604 163.45 42.4783C162.294 41.322 160.818 40.7439 159.023 40.7439C157.258 40.7439 155.783 41.322 154.596 42.4783C153.409 43.604 152.816 45.2623 152.816 47.453V47.9094C152.816 50.1002 153.409 51.7736 154.596 52.9299C155.783 54.0556 157.258 54.6185 159.023 54.6185ZM186.393 59.639C184.142 59.639 182.118 59.1826 180.323 58.2698C178.528 57.357 177.113 56.0334 176.079 54.2991C175.044 52.5647 174.527 50.4805 174.527 48.0464V47.3161C174.527 44.882 175.044 42.7977 176.079 41.0634C177.113 39.3291 178.528 38.0055 180.323 37.0927C182.118 36.1799 184.142 35.7235 186.393 35.7235C188.645 35.7235 190.668 36.1799 192.464 37.0927C194.259 38.0055 195.674 39.3291 196.708 41.0634C197.743 42.7977 198.26 44.882 198.26 47.3161V48.0464C198.26 50.4805 197.743 52.5647 196.708 54.2991C195.674 56.0334 194.259 57.357 192.464 58.2698C190.668 59.1826 188.645 59.639 186.393 59.639ZM186.393 54.5273C188.158 54.5273 189.619 53.9644 190.775 52.8386C191.931 51.6824 192.509 50.0393 192.509 47.9094V47.453C192.509 45.3232 191.931 43.6953 190.775 42.5695C189.649 41.4133 188.189 40.8352 186.393 40.8352C184.629 40.8352 183.168 41.4133 182.012 42.5695C180.856 43.6953 180.278 45.3232 180.278 47.453V47.9094C180.278 50.0393 180.856 51.6824 182.012 52.8386C183.168 53.9644 184.629 54.5273 186.393 54.5273Z" fill="#D0BCFF"/>
<g clip-path="url(#clip0_274_36100)">
<rect x="215" y="25.3984" width="75.6856" height="37.2023" rx="18.6012" fill="white"/>
<path d="M241.527 43.4063H239.219L239.207 42.2677H241.222C241.562 42.2677 241.851 42.2179 242.087 42.1184C242.328 42.0147 242.51 41.8675 242.635 41.6767C242.759 41.4817 242.821 41.2474 242.821 40.9736C242.821 40.6709 242.763 40.4241 242.647 40.2333C242.531 40.0425 242.353 39.9036 242.112 39.8164C241.876 39.7293 241.573 39.6858 241.204 39.6858H239.692V47.5H238.13V38.4415H241.204C241.701 38.4415 242.145 38.4892 242.535 38.5846C242.929 38.68 243.263 38.8293 243.537 39.0325C243.815 39.2316 244.024 39.4846 244.165 39.7916C244.31 40.0985 244.383 40.4635 244.383 40.8865C244.383 41.2598 244.294 41.602 244.115 41.9131C243.937 42.22 243.674 42.471 243.325 42.6659C242.977 42.8608 242.543 42.977 242.025 43.0143L241.527 43.4063ZM241.459 47.5H238.728L239.431 46.2619H241.459C241.811 46.2619 242.106 46.2039 242.342 46.0877C242.579 45.9674 242.755 45.8036 242.871 45.5962C242.991 45.3847 243.051 45.1379 243.051 44.8559C243.051 44.5614 243 44.3063 242.896 44.0906C242.792 43.8708 242.628 43.7028 242.404 43.5867C242.18 43.4664 241.888 43.4063 241.527 43.4063H239.773L239.785 42.2677H242.068L242.423 42.697C242.921 42.7136 243.329 42.8235 243.649 43.0267C243.972 43.23 244.213 43.4934 244.37 43.8169C244.528 44.1404 244.607 44.4888 244.607 44.8621C244.607 45.4386 244.48 45.9218 244.227 46.3117C243.978 46.7016 243.62 46.9981 243.151 47.2014C242.682 47.4005 242.118 47.5 241.459 47.5ZM252.201 46.2619V47.5H247.392V46.2619H252.201ZM247.833 38.4415V47.5H246.272V38.4415H247.833ZM251.573 42.2242V43.4436H247.392V42.2242H251.573ZM252.17 38.4415V39.6858H247.392V38.4415H252.17ZM257.419 38.4415V47.5H255.869V38.4415H257.419ZM260.262 38.4415V39.6858H253.051V38.4415H260.262ZM264.478 39.6485L261.771 47.5H260.135L263.544 38.4415H264.59L264.478 39.6485ZM266.742 47.5L264.03 39.6485L263.911 38.4415H264.963L268.385 47.5H266.742ZM266.612 44.1404V45.3785H261.684V44.1404H266.612Z" fill="#BEA9EE"/>
</g>
<defs>
<clipPath id="clip0_274_36100">
<rect x="215" y="25.3984" width="75.6856" height="37.2023" rx="18.6012" fill="white"/>
</clipPath>
</defs>
</svg>
