<svg width="291" height="58" viewBox="0 0 291 58" fill="none" xmlns="http://www.w3.org/2000/svg">
<path d="M3.01225 44V12.0519H23.0939V17.5287H9.03676V25.2419H21.9986V30.7187H9.03676V44H3.01225ZM26.9359 44V21.3625H32.6866V44H26.9359ZM29.8112 18.7153C28.7767 18.7153 27.8944 18.3806 27.1641 17.7113C26.4643 17.0419 26.1144 16.1595 26.1144 15.0641C26.1144 13.9688 26.4643 13.0864 27.1641 12.417C27.8944 11.7476 28.7767 11.4129 29.8112 11.4129C30.8762 11.4129 31.7586 11.7476 32.4584 12.417C33.1582 13.0864 33.5081 13.9688 33.5081 15.0641C33.5081 16.1595 33.1582 17.0419 32.4584 17.7113C31.7586 18.3806 30.8762 18.7153 29.8112 18.7153ZM38.4201 44V21.3625H44.0795V24.3291H44.901C45.2661 23.538 45.9507 22.7925 46.9548 22.0927C47.9589 21.3625 49.4803 20.9973 51.5188 20.9973C53.2836 20.9973 54.8202 21.4081 56.1285 22.2296C57.4673 23.0207 58.5018 24.1313 59.232 25.5614C59.9623 26.961 60.3274 28.604 60.3274 30.4905V44H54.5767V30.9469C54.5767 29.243 54.1508 27.9651 53.2988 27.1131C52.4773 26.2612 51.2906 25.8352 49.7389 25.8352C47.9741 25.8352 46.6049 26.4285 45.6313 27.6152C44.6576 28.7714 44.1708 30.3992 44.1708 32.4987V44H38.4201ZM75.0332 44.639C73.238 44.639 71.5493 44.1978 69.9671 43.3154C68.4153 42.4026 67.1678 41.079 66.2246 39.3447C65.2814 37.6104 64.8098 35.5109 64.8098 33.0464V32.3161C64.8098 29.8515 65.2814 27.7521 66.2246 26.0178C67.1678 24.2834 68.4153 22.9751 69.9671 22.0927C71.5189 21.1799 73.2076 20.7235 75.0332 20.7235C76.4024 20.7235 77.5434 20.8909 78.4562 21.2256C79.3994 21.5298 80.1601 21.9254 80.7382 22.4122C81.3163 22.899 81.7575 23.4163 82.0618 23.964H82.8833V12.0519H88.6339V44H82.9746V41.2616H82.153C81.6358 42.1135 80.8295 42.8894 79.7341 43.5892C78.6692 44.2891 77.1022 44.639 75.0332 44.639ZM76.7675 39.6185C78.5322 39.6185 80.0079 39.0556 81.1946 37.9299C82.3812 36.7736 82.9746 35.1002 82.9746 32.9094V32.453C82.9746 30.2623 82.3812 28.604 81.1946 27.4783C80.0384 26.322 78.5627 25.7439 76.7675 25.7439C75.0027 25.7439 73.527 26.322 72.3404 27.4783C71.1538 28.604 70.5604 30.2623 70.5604 32.453V32.9094C70.5604 35.1002 71.1538 36.7736 72.3404 37.9299C73.527 39.0556 75.0027 39.6185 76.7675 39.6185Z" fill="black"/>
<path d="M103.362 44.639C100.076 44.639 97.459 43.7414 95.5117 41.9462C93.5948 40.151 92.6364 37.6408 92.6364 34.4156V31.4033H98.6609V34.4156C98.6609 35.8456 99.0564 36.9714 99.8475 37.7929C100.639 38.584 101.749 38.9796 103.179 38.9796C104.518 38.9796 105.553 38.584 106.283 37.7929C107.043 37.0018 107.424 35.876 107.424 34.4156V17.5287H101.947V12.0519H117.1V17.5287H113.448V34.4156C113.448 37.7321 112.551 40.2727 110.756 42.0375C108.96 43.7718 106.496 44.639 103.362 44.639ZM130.621 44.639C128.37 44.639 126.346 44.1826 124.551 43.2698C122.756 42.357 121.341 41.0334 120.306 39.2991C119.272 37.5647 118.755 35.4805 118.755 33.0464V32.3161C118.755 29.882 119.272 27.7977 120.306 26.0634C121.341 24.3291 122.756 23.0055 124.551 22.0927C126.346 21.1799 128.37 20.7235 130.621 20.7235C132.873 20.7235 134.896 21.1799 136.691 22.0927C138.486 23.0055 139.901 24.3291 140.936 26.0634C141.97 27.7977 142.488 29.882 142.488 32.3161V33.0464C142.488 35.4805 141.97 37.5647 140.936 39.2991C139.901 41.0334 138.486 42.357 136.691 43.2698C134.896 44.1826 132.873 44.639 130.621 44.639ZM130.621 39.5273C132.386 39.5273 133.846 38.9644 135.003 37.8386C136.159 36.6824 136.737 35.0393 136.737 32.9094V32.453C136.737 30.3232 136.159 28.6953 135.003 27.5695C133.877 26.4133 132.416 25.8352 130.621 25.8352C128.856 25.8352 127.396 26.4133 126.24 27.5695C125.083 28.6953 124.505 30.3232 124.505 32.453V32.9094C124.505 35.0393 125.083 36.6824 126.24 37.8386C127.396 38.9644 128.856 39.5273 130.621 39.5273ZM160.758 44.639C158.719 44.639 157.152 44.2891 156.057 43.5892C154.961 42.8894 154.155 42.1135 153.638 41.2616H152.816V44H147.157V12.0519H152.907V23.964H153.729C154.064 23.4163 154.505 22.899 155.053 22.4122C155.631 21.9254 156.376 21.5298 157.289 21.2256C158.232 20.8909 159.388 20.7235 160.758 20.7235C162.583 20.7235 164.272 21.1799 165.824 22.0927C167.375 22.9751 168.623 24.2834 169.566 26.0178C170.509 27.7521 170.981 29.8515 170.981 32.3161V33.0464C170.981 35.5109 170.509 37.6104 169.566 39.3447C168.623 41.079 167.375 42.4026 165.824 43.3154C164.272 44.1978 162.583 44.639 160.758 44.639ZM159.023 39.6185C160.788 39.6185 162.264 39.0556 163.45 37.9299C164.637 36.7736 165.23 35.1002 165.23 32.9094V32.453C165.23 30.2623 164.637 28.604 163.45 27.4783C162.294 26.322 160.818 25.7439 159.023 25.7439C157.258 25.7439 155.783 26.322 154.596 27.4783C153.409 28.604 152.816 30.2623 152.816 32.453V32.9094C152.816 35.1002 153.409 36.7736 154.596 37.9299C155.783 39.0556 157.258 39.6185 159.023 39.6185ZM186.393 44.639C184.142 44.639 182.118 44.1826 180.323 43.2698C178.528 42.357 177.113 41.0334 176.079 39.2991C175.044 37.5647 174.527 35.4805 174.527 33.0464V32.3161C174.527 29.882 175.044 27.7977 176.079 26.0634C177.113 24.3291 178.528 23.0055 180.323 22.0927C182.118 21.1799 184.142 20.7235 186.393 20.7235C188.645 20.7235 190.668 21.1799 192.464 22.0927C194.259 23.0055 195.674 24.3291 196.708 26.0634C197.743 27.7977 198.26 29.882 198.26 32.3161V33.0464C198.26 35.4805 197.743 37.5647 196.708 39.2991C195.674 41.0334 194.259 42.357 192.464 43.2698C190.668 44.1826 188.645 44.639 186.393 44.639ZM186.393 39.5273C188.158 39.5273 189.619 38.9644 190.775 37.8386C191.931 36.6824 192.509 35.0393 192.509 32.9094V32.453C192.509 30.3232 191.931 28.6953 190.775 27.5695C189.649 26.4133 188.189 25.8352 186.393 25.8352C184.629 25.8352 183.168 26.4133 182.012 27.5695C180.856 28.6953 180.278 30.3232 180.278 32.453V32.9094C180.278 35.0393 180.856 36.6824 182.012 37.8386C183.168 38.9644 184.629 39.5273 186.393 39.5273Z" fill="#7559B6"/>
<g clip-path="url(#clip0_274_36088)">
<rect x="215" y="10.3984" width="75.6856" height="37.2023" rx="18.6012" fill="#1C1B1F"/>
<path d="M241.527 28.4063H239.219L239.207 27.2677H241.222C241.562 27.2677 241.851 27.2179 242.087 27.1184C242.328 27.0147 242.51 26.8675 242.635 26.6767C242.759 26.4817 242.821 26.2474 242.821 25.9736C242.821 25.6709 242.763 25.4241 242.647 25.2333C242.531 25.0425 242.353 24.9036 242.112 24.8164C241.876 24.7293 241.573 24.6858 241.204 24.6858H239.692V32.5H238.13V23.4415H241.204C241.701 23.4415 242.145 23.4892 242.535 23.5846C242.929 23.68 243.263 23.8293 243.537 24.0325C243.815 24.2316 244.024 24.4846 244.165 24.7916C244.31 25.0985 244.383 25.4635 244.383 25.8865C244.383 26.2598 244.294 26.602 244.115 26.9131C243.937 27.22 243.674 27.471 243.325 27.6659C242.977 27.8608 242.543 27.977 242.025 28.0143L241.527 28.4063ZM241.459 32.5H238.728L239.431 31.2619H241.459C241.811 31.2619 242.106 31.2039 242.342 31.0877C242.579 30.9674 242.755 30.8036 242.871 30.5962C242.991 30.3847 243.051 30.1379 243.051 29.8559C243.051 29.5614 243 29.3063 242.896 29.0906C242.792 28.8708 242.628 28.7028 242.404 28.5867C242.18 28.4664 241.888 28.4063 241.527 28.4063H239.773L239.785 27.2677H242.068L242.423 27.697C242.921 27.7136 243.329 27.8235 243.649 28.0267C243.972 28.23 244.213 28.4934 244.37 28.8169C244.528 29.1404 244.607 29.4888 244.607 29.8621C244.607 30.4386 244.48 30.9218 244.227 31.3117C243.978 31.7016 243.62 31.9981 243.151 32.2014C242.682 32.4005 242.118 32.5 241.459 32.5ZM252.201 31.2619V32.5H247.392V31.2619H252.201ZM247.833 23.4415V32.5H246.272V23.4415H247.833ZM251.573 27.2242V28.4436H247.392V27.2242H251.573ZM252.17 23.4415V24.6858H247.392V23.4415H252.17ZM257.419 23.4415V32.5H255.869V23.4415H257.419ZM260.262 23.4415V24.6858H253.051V23.4415H260.262ZM264.478 24.6485L261.771 32.5H260.135L263.544 23.4415H264.59L264.478 24.6485ZM266.742 32.5L264.03 24.6485L263.911 23.4415H264.963L268.385 32.5H266.742ZM266.612 29.1404V30.3785H261.684V29.1404H266.612Z" fill="#BEA9EE"/>
</g>
<defs>
<clipPath id="clip0_274_36088">
<rect x="215" y="10.3984" width="75.6856" height="37.2023" rx="18.6012" fill="white"/>
</clipPath>
</defs>
</svg>
