<svg width="49" height="49" viewBox="0 0 49 49" fill="none" xmlns="http://www.w3.org/2000/svg">
<path fill-rule="evenodd" clip-rule="evenodd" d="M24.6641 5.15625C13.6141 5.15625 4.66406 14.1062 4.66406 25.1562C4.66406 34.0063 10.3891 41.4813 18.3391 44.1312C19.3391 44.3063 19.7141 43.7062 19.7141 43.1813C19.7141 42.7062 19.6891 41.1313 19.6891 39.4562C14.6641 40.3813 13.3641 38.2313 12.9641 37.1062C12.7391 36.5312 11.7641 34.7562 10.9141 34.2812C10.2141 33.9062 9.21406 32.9812 10.8891 32.9562C12.4641 32.9312 13.5891 34.4062 13.9641 35.0062C15.7641 38.0312 18.6391 37.1813 19.7891 36.6562C19.9641 35.3563 20.4891 34.4812 21.0641 33.9812C16.6141 33.4812 11.9641 31.7563 11.9641 24.1063C11.9641 21.9312 12.7391 20.1312 14.0141 18.7312C13.8141 18.2312 13.1141 16.1812 14.2141 13.4312C14.2141 13.4312 15.8891 12.9063 19.7141 15.4813C21.3141 15.0312 23.0141 14.8062 24.7141 14.8062C26.4141 14.8062 28.1141 15.0312 29.7141 15.4813C33.5391 12.8813 35.2141 13.4312 35.2141 13.4312C36.3141 16.1812 35.6141 18.2312 35.4141 18.7312C36.6891 20.1312 37.4641 21.9062 37.4641 24.1063C37.4641 31.7812 32.7891 33.4812 28.3391 33.9812C29.0641 34.6062 29.6891 35.8063 29.6891 37.6813C29.6891 40.3563 29.6641 42.5062 29.6641 43.1813C29.6641 43.7062 30.0391 44.3312 31.0391 44.1312C35.0094 42.7909 38.4595 40.2392 40.9037 36.8353C43.3478 33.4314 44.663 29.3468 44.6641 25.1562C44.6641 14.1062 35.7141 5.15625 24.6641 5.15625Z" fill="#938F99"/>
</svg>
