<svg width="31" height="29" viewBox="0 0 31 29" fill="none" xmlns="http://www.w3.org/2000/svg">
<path d="M28.8145 14.4605C28.8145 13.5398 28.7263 12.6546 28.5624 11.8047H15.5V16.833H22.9642C22.6364 18.4501 21.6529 19.8194 20.1777 20.7401V24.0097H24.679C27.3015 21.7434 28.8145 18.4147 28.8145 14.4605Z" fill="white"/>
<path d="M15.5026 27.1459C19.2473 27.1459 22.3868 25.9891 24.6815 24.0061L20.1803 20.7365C18.9447 21.5155 17.3686 21.9877 15.5026 21.9877C11.8966 21.9877 8.83272 19.7096 7.73579 16.6406H3.12109V19.9929C5.40322 24.2304 10.081 27.1459 15.5026 27.1459Z" fill="white"/>
<path d="M7.7353 16.6299C7.45792 15.8509 7.29401 15.0246 7.29401 14.163C7.29401 13.3013 7.45792 12.475 7.7353 11.696V8.34375H3.12061C2.17498 10.0907 1.63281 12.0619 1.63281 14.163C1.63281 16.264 2.17498 18.2352 3.12061 19.9822L6.71402 17.3617L7.7353 16.6299Z" fill="white"/>
<path d="M15.5026 6.34969C17.5452 6.34969 19.3608 7.01069 20.8107 8.28549L24.7824 4.56734C22.3742 2.46629 19.2473 1.17969 15.5026 1.17969C10.081 1.17969 5.40322 4.09519 3.12109 8.34451L7.73579 11.6967C8.83272 8.62779 11.8966 6.34969 15.5026 6.34969Z" fill="white"/>
</svg>