<svg width="49" height="49" viewBox="0 0 49 49" fill="none" xmlns="http://www.w3.org/2000/svg">
<path fill-rule="evenodd" clip-rule="evenodd" d="M24.6641 6.66406C19.7753 6.66406 19.1633 6.68446 17.2433 6.77206C15.3269 6.85966 14.0177 7.16446 12.8729 7.60966C11.6729 8.06086 10.5845 8.76886 9.68446 9.68566C8.76913 10.5846 8.06069 11.6723 7.60846 12.8729C7.16566 14.0177 6.85966 15.3281 6.77206 17.2445C6.68566 19.1633 6.66406 19.7741 6.66406 24.6641C6.66406 29.5541 6.68446 30.1649 6.77206 32.0849C6.85966 34.0013 7.16446 35.3105 7.60966 36.4553C8.06086 37.6553 8.76886 38.7437 9.68566 39.6437C10.5846 40.559 11.6723 41.2674 12.8729 41.7197C14.0177 42.1637 15.3269 42.4685 17.2433 42.5561C19.1633 42.6437 19.7753 42.6641 24.6641 42.6641C29.5529 42.6641 30.1649 42.6437 32.0849 42.5561C34.0013 42.4685 35.3105 42.1637 36.4553 41.7185C37.6553 41.2673 38.7437 40.5593 39.6437 39.6425C40.559 38.7435 41.2674 37.6559 41.7197 36.4553C42.1637 35.3105 42.4685 34.0013 42.5561 32.0849C42.6437 30.1649 42.6641 29.5529 42.6641 24.6641C42.6641 19.7753 42.6437 19.1633 42.5561 17.2433C42.4685 15.3269 42.1637 14.0177 41.7185 12.8729C41.2666 11.6717 40.5581 10.5836 39.6425 9.68446C38.7435 8.76913 37.6559 8.06069 36.4553 7.60846C35.3105 7.16566 34.0001 6.85966 32.0837 6.77206C30.1649 6.68566 29.5541 6.66406 24.6641 6.66406ZM24.6641 9.90766C29.4701 9.90766 30.0401 9.92566 31.9385 10.0121C33.6929 10.0925 34.6457 10.3841 35.2805 10.6325C36.1205 10.9577 36.7205 11.3489 37.3505 11.9777C37.9805 12.6077 38.3705 13.2077 38.6957 14.0477C38.9429 14.6825 39.2357 15.6353 39.3161 17.3897C39.4025 19.2881 39.4205 19.8581 39.4205 24.6641C39.4205 29.4701 39.4025 30.0401 39.3161 31.9385C39.2357 33.6929 38.9441 34.6457 38.6957 35.2805C38.4076 36.0623 37.9479 36.7697 37.3505 37.3505C36.7698 37.948 36.0624 38.4077 35.2805 38.6957C34.6457 38.9429 33.6929 39.2357 31.9385 39.3161C30.0401 39.4025 29.4713 39.4205 24.6641 39.4205C19.8569 39.4205 19.2881 39.4025 17.3897 39.3161C15.6353 39.2357 14.6825 38.9441 14.0477 38.6957C13.2658 38.4076 12.5585 37.9479 11.9777 37.3505C11.3803 36.7696 10.9206 36.0623 10.6325 35.2805C10.3853 34.6457 10.0925 33.6929 10.0121 31.9385C9.92566 30.0401 9.90766 29.4701 9.90766 24.6641C9.90766 19.8581 9.92566 19.2881 10.0121 17.3897C10.0925 15.6353 10.3841 14.6825 10.6325 14.0477C10.9577 13.2077 11.3489 12.6077 11.9777 11.9777C12.5584 11.3801 13.2658 10.9204 14.0477 10.6325C14.6825 10.3853 15.6353 10.0925 17.3897 10.0121C19.2881 9.92566 19.8581 9.90766 24.6641 9.90766Z" fill="#938F99"/>
<path fill-rule="evenodd" clip-rule="evenodd" d="M24.6622 30.6677C23.8734 30.6677 23.0924 30.5123 22.3638 30.2105C21.6351 29.9087 20.973 29.4663 20.4153 28.9086C19.8576 28.3509 19.4152 27.6888 19.1133 26.9601C18.8115 26.2314 18.6562 25.4504 18.6562 24.6617C18.6562 23.873 18.8115 23.092 19.1133 22.3633C19.4152 21.6346 19.8576 20.9725 20.4153 20.4148C20.973 19.8571 21.6351 19.4147 22.3638 19.1129C23.0924 18.811 23.8734 18.6557 24.6622 18.6557C26.255 18.6557 27.7827 19.2885 28.909 20.4148C30.0354 21.5411 30.6681 23.0688 30.6681 24.6617C30.6681 26.2546 30.0354 27.7822 28.909 28.9086C27.7827 30.0349 26.255 30.6677 24.6622 30.6677ZM24.6622 15.4097C22.2084 15.4097 19.8551 16.3844 18.12 18.1195C16.3849 19.8546 15.4102 22.2079 15.4102 24.6617C15.4102 27.1155 16.3849 29.4688 18.12 31.2038C19.8551 32.9389 22.2084 33.9137 24.6622 33.9137C27.1159 33.9137 29.4692 32.9389 31.2043 31.2038C32.9394 29.4688 33.9141 27.1155 33.9141 24.6617C33.9141 22.2079 32.9394 19.8546 31.2043 18.1195C29.4692 16.3844 27.1159 15.4097 24.6622 15.4097ZM36.6057 15.2417C36.6057 15.8217 36.3753 16.378 35.9652 16.7881C35.5551 17.1983 34.9988 17.4287 34.4188 17.4287C33.8387 17.4287 33.2824 17.1983 32.8723 16.7881C32.4622 16.378 32.2318 15.8217 32.2318 15.2417C32.2318 14.6617 32.4622 14.1054 32.8723 13.6952C33.2824 13.2851 33.8387 13.0547 34.4188 13.0547C34.9988 13.0547 35.5551 13.2851 35.9652 13.6952C36.3753 14.1054 36.6057 14.6617 36.6057 15.2417Z" fill="#938F99"/>
</svg>
