<svg width="49" height="49" viewBox="0 0 49 49" fill="none" xmlns="http://www.w3.org/2000/svg">
<path d="M42.6641 9.31112V40.017C42.6641 40.719 42.3852 41.3923 41.8888 41.8888C41.3923 42.3852 40.719 42.6641 40.017 42.6641H9.31112C8.60908 42.6641 7.93579 42.3852 7.43937 41.8888C6.94295 41.3923 6.66406 40.719 6.66406 40.017V9.31112C6.66406 8.60908 6.94295 7.93579 7.43937 7.43937C7.93579 6.94295 8.60908 6.66406 9.31112 6.66406H40.017C40.719 6.66406 41.3923 6.94295 41.8888 7.43937C42.3852 7.93579 42.6641 8.60908 42.6641 9.31112V9.31112ZM17.2523 20.4288H11.9582V37.3699H17.2523V20.4288ZM17.7288 14.6052C17.7316 14.2048 17.6554 13.8077 17.5048 13.4367C17.3541 13.0656 17.1318 12.7279 16.8506 12.4428C16.5694 12.1576 16.2348 11.9307 15.8659 11.7749C15.497 11.619 15.101 11.5374 14.7005 11.5347H14.6052C13.7909 11.5347 13.0099 11.8582 12.434 12.434C11.8582 13.0099 11.5347 13.7909 11.5347 14.6052C11.5347 15.4196 11.8582 16.2006 12.434 16.7765C13.0099 17.3523 13.7909 17.6758 14.6052 17.6758V17.6758C15.0057 17.6857 15.4042 17.6165 15.778 17.4723C16.1517 17.3281 16.4934 17.1117 16.7835 16.8354C17.0735 16.5591 17.3063 16.2283 17.4685 15.862C17.6307 15.4957 17.7192 15.101 17.7288 14.7005V14.6052ZM37.3699 27.0782C37.3699 21.9852 34.1299 20.0052 30.9111 20.0052C29.8572 19.9525 28.8079 20.1769 27.8678 20.6563C26.9277 21.1356 26.1298 21.853 25.5535 22.737H25.4052V20.4288H20.4288V37.3699H25.7229V28.3594C25.6464 27.4365 25.9371 26.5208 26.5318 25.811C27.1266 25.1013 27.9774 24.6549 28.8994 24.5688H29.1005C30.7841 24.5688 32.0335 25.6276 32.0335 28.2958V37.3699H37.3276L37.3699 27.0782Z" fill="#938F99"/>
</svg>
