<svg width="20" height="20" viewBox="0 0 20 20" fill="none" xmlns="http://www.w3.org/2000/svg">
<mask id="mask0_434_36088" style="mask-type:alpha" maskUnits="userSpaceOnUse" x="0" y="0" width="20" height="20">
<rect width="20" height="20" fill="#D9D9D9"/>
</mask>
<g mask="url(#mask0_434_36088)">
<path d="M10.0026 10.0052C10.4609 10.0052 10.8534 9.84188 11.1801 9.51521C11.5062 9.1891 11.6693 8.79688 11.6693 8.33854C11.6693 7.88021 11.5062 7.48771 11.1801 7.16104C10.8534 6.83493 10.4609 6.67188 10.0026 6.67188C9.54427 6.67188 9.15205 6.83493 8.82594 7.16104C8.49927 7.48771 8.33594 7.88021 8.33594 8.33854C8.33594 8.79688 8.49927 9.1891 8.82594 9.51521C9.15205 9.84188 9.54427 10.0052 10.0026 10.0052ZM10.0026 16.1302C11.697 14.5747 12.954 13.1613 13.7734 11.8902C14.5929 10.6197 15.0026 9.49132 15.0026 8.50521C15.0026 6.99132 14.5198 5.7516 13.5543 4.78604C12.5893 3.82104 11.4054 3.33854 10.0026 3.33854C8.59983 3.33854 7.41566 3.82104 6.4501 4.78604C5.4851 5.7516 5.0026 6.99132 5.0026 8.50521C5.0026 9.49132 5.41233 10.6197 6.23177 11.8902C7.05122 13.1613 8.30816 14.5747 10.0026 16.1302ZM10.0026 18.3385C7.76649 16.4358 6.09649 14.6683 4.9926 13.036C3.88816 11.4044 3.33594 9.8941 3.33594 8.50521C3.33594 6.42188 4.00622 4.76215 5.34677 3.52604C6.68677 2.28993 8.23872 1.67188 10.0026 1.67188C11.7665 1.67188 13.3184 2.28993 14.6584 3.52604C15.999 4.76215 16.6693 6.42188 16.6693 8.50521C16.6693 9.8941 16.1173 11.4044 15.0134 13.036C13.909 14.6683 12.2387 16.4358 10.0026 18.3385Z" fill="#BAABD9"/>
</g>
</svg>
