<svg width="218" height="54" viewBox="0 0 218 54" fill="none" xmlns="http://www.w3.org/2000/svg">
<mask id="mask0_591_36903" style="mask-type:alpha" maskUnits="userSpaceOnUse" x="0" y="3" width="48" height="48">
<rect y="3.49219" width="47.0198" height="47.0198" fill="#D9D9D9"/>
</mask>
<g mask="url(#mask0_591_36903)">
<path d="M21.5465 36.8014H25.4648V28.9648H33.3014V25.0465H25.4648V17.2099H21.5465V25.0465H13.7099V28.9648H21.5465V36.8014ZM23.5057 46.5972C20.7955 46.5972 18.2486 46.0826 15.8649 45.0534C13.4813 44.0255 11.4078 42.6299 9.6446 40.8667C7.88136 39.1035 6.48579 37.03 5.45788 34.6464C4.42867 32.2627 3.91406 29.7158 3.91406 27.0057C3.91406 24.2955 4.42867 21.7486 5.45788 19.3649C6.48579 16.9813 7.88136 14.9078 9.6446 13.1446C11.4078 11.3814 13.4813 9.98513 15.8649 8.95592C18.2486 7.92802 20.7955 7.41406 23.5057 7.41406C26.2158 7.41406 28.7627 7.92802 31.1464 8.95592C33.53 9.98513 35.6035 11.3814 37.3667 13.1446C39.1299 14.9078 40.5255 16.9813 41.5534 19.3649C42.5826 21.7486 43.0972 24.2955 43.0972 27.0057C43.0972 29.7158 42.5826 32.2627 41.5534 34.6464C40.5255 37.03 39.1299 39.1035 37.3667 40.8667C35.6035 42.6299 33.53 44.0255 31.1464 45.0534C28.7627 46.0826 26.2158 46.5972 23.5057 46.5972ZM23.5057 42.6789C27.8811 42.6789 31.5872 41.1606 34.6239 38.1239C37.6606 35.0872 39.1789 31.3811 39.1789 27.0057C39.1789 22.6302 37.6606 18.9241 34.6239 15.8874C31.5872 12.8507 27.8811 11.3324 23.5057 11.3324C19.1302 11.3324 15.4241 12.8507 12.3874 15.8874C9.35073 18.9241 7.83238 22.6302 7.83238 27.0057C7.83238 31.3811 9.35073 35.0872 12.3874 38.1239C15.4241 41.1606 19.1302 42.6789 23.5057 42.6789Z" fill="#BAABD9"/>
</g>
<path d="M77.2998 34.5H80.3091L74.5962 18.0431H70.5995L64.8396 34.5H67.7783L68.9773 30.9735H76.1008L77.2998 34.5ZM69.8472 28.3639L72.4098 20.8407H72.6449L75.2075 28.3639H69.8472ZM86.6425 34.8056C88.7819 34.8056 89.7928 33.6772 90.31 33.0424H90.5216V34.5H93.2487V16.8676H90.4746V23.756H90.263C89.7223 23.0507 88.6643 21.8752 86.4779 21.8752C83.163 21.8752 80.7885 24.6729 80.7885 28.3404C80.7885 32.0785 83.3276 34.8056 86.6425 34.8056ZM87.0892 32.2195C85.1613 32.2195 83.5862 30.6914 83.5862 28.3639C83.5862 26.0835 85.0908 24.4848 87.0656 24.4848C88.9699 24.4848 90.5451 25.9189 90.5451 28.3639C90.5451 30.4563 89.1815 32.2195 87.0892 32.2195ZM101.566 34.8056C103.705 34.8056 104.716 33.6772 105.233 33.0424H105.445V34.5H108.172V16.8676H105.398V23.756H105.186C104.646 23.0507 103.588 21.8752 101.401 21.8752C98.0863 21.8752 95.7118 24.6729 95.7118 28.3404C95.7118 32.0785 98.2508 34.8056 101.566 34.8056ZM102.012 32.2195C100.085 32.2195 98.5095 30.6914 98.5095 28.3639C98.5095 26.0835 100.014 24.4848 101.989 24.4848C103.893 24.4848 105.468 25.9189 105.468 28.3639C105.468 30.4563 104.105 32.2195 102.012 32.2195ZM117.565 39.9073H120.339V32.9483H120.551C121.068 33.7007 122.173 34.8056 124.359 34.8056C127.651 34.8056 130.049 32.0315 130.049 28.3404C130.049 24.6258 127.486 21.8752 124.171 21.8752C122.055 21.8752 121.021 23.0272 120.527 23.6619H120.316V22.1808H117.565V39.9073ZM123.772 32.196C121.867 32.196 120.292 30.7854 120.292 28.3404C120.292 26.248 121.632 24.4848 123.725 24.4848C125.676 24.4848 127.204 26.0129 127.204 28.3404C127.204 30.6209 125.723 32.196 123.772 32.196ZM132.764 34.5H135.538V28.4109C135.538 26.0835 136.619 24.6493 138.641 24.6493H139.864V21.8752H138.947C137.372 21.8752 136.173 22.9566 135.702 23.9911H135.514V22.1808H132.764V34.5ZM147.613 34.8056C151.398 34.8056 154.125 32.008 154.125 28.3404C154.125 24.6729 151.422 21.8752 147.637 21.8752C143.852 21.8752 141.124 24.6729 141.124 28.3404C141.124 32.0315 143.828 34.8056 147.613 34.8056ZM147.613 32.1725C145.474 32.1725 143.946 30.5738 143.946 28.3404C143.946 26.154 145.45 24.5083 147.613 24.5083C149.776 24.5083 151.304 26.154 151.304 28.3404C151.304 30.5503 149.776 32.1725 147.613 32.1725ZM159.904 20.4646C160.915 20.4646 161.668 19.7123 161.668 18.7249C161.668 17.7609 160.915 17.0086 159.904 17.0086C158.894 17.0086 158.141 17.7609 158.141 18.7249C158.141 19.7123 158.894 20.4646 159.904 20.4646ZM155.061 39.9073H157.318C159.693 39.9073 161.268 38.8258 161.268 36.2162V22.1808H156.002V24.6258H158.494V36.1927C158.494 37.0626 158.118 37.3917 157.271 37.3917H155.061V39.9073ZM170.521 34.8056C173.084 34.8056 175.341 33.5361 176.14 30.9735L173.601 30.3623C173.154 31.7258 171.861 32.4311 170.498 32.4311C168.476 32.4311 167.136 31.1146 167.112 29.0457H176.446V28.2699C176.446 24.6023 174.165 21.8752 170.404 21.8752C167.089 21.8752 164.244 24.4848 164.244 28.3639C164.244 32.1255 166.76 34.8056 170.521 34.8056ZM167.136 27.0239C167.3 25.5427 168.64 24.2967 170.404 24.2967C172.096 24.2967 173.483 25.3546 173.625 27.0239H167.136ZM184.713 34.8056C187.604 34.8056 190.026 33.207 190.731 30.2212L188.098 29.5864C187.769 31.1851 186.452 32.1725 184.783 32.1725C182.667 32.1725 181.163 30.5503 181.163 28.3404C181.163 26.1775 182.62 24.5083 184.76 24.5083C186.429 24.5083 187.745 25.5192 188.074 27.1179L190.708 26.4831C190.002 23.4974 187.581 21.8752 184.689 21.8752C180.927 21.8752 178.318 24.7434 178.318 28.3404C178.318 31.9374 180.88 34.8056 184.713 34.8056ZM198.616 34.5H200.779V32.0315H198.64C197.793 32.0315 197.441 31.6553 197.441 30.7854V24.6258H200.92V22.1808H197.441V18.7249H194.808V22.1808H192.504V24.6258H194.643V30.8089C194.643 33.4185 196.218 34.5 198.616 34.5Z" fill="#BAABD9"/>
</svg>
