<svg width="49" height="49" viewBox="0 0 49 49" fill="none" xmlns="http://www.w3.org/2000/svg">
<path fill-rule="evenodd" clip-rule="evenodd" d="M40.2481 11.4957C41.9683 11.9578 43.329 13.3185 43.7911 15.0387C44.6384 18.1709 44.6641 24.6664 44.6641 24.6664C44.6641 24.6664 44.6641 31.1876 43.8168 34.2941C43.3547 36.0143 41.994 37.375 40.2738 37.8371C37.1673 38.6844 24.6641 38.6844 24.6641 38.6844C24.6641 38.6844 12.1609 38.6844 9.05431 37.8371C7.33415 37.375 5.97344 36.0143 5.5113 34.2941C4.66406 31.1619 4.66406 24.6664 4.66406 24.6664C4.66406 24.6664 4.66406 18.1709 5.48563 15.0644C5.94776 13.3442 7.30848 11.9835 9.02863 11.5214C12.1352 10.6741 24.6384 10.6484 24.6384 10.6484C24.6384 10.6484 37.1416 10.6484 40.2481 11.4957ZM31.0312 24.6664L20.6589 30.6741V18.6587L31.0312 24.6664Z" fill="#938F99"/>
</svg>
